<svg fill="none" height="84" viewBox="0 0 298 84" width="298" xmlns="http://www.w3.org/2000/svg"><g fill="#fff"><path d="m.0415537 59.6244c1.5211463-.1205 3.3188663-.1205 3.3188663-2.5837v-33.1756c0-3.0402-1.52115-2.4373-3.3188663-2.8593v-1.2575c3.2237963-.0516 6.5513063-.0516 9.9133863-.1205 3.00776-.0517 5.92036.0689 8.64286 1.8517 2.1521 1.4382 3.4572 4.711 3.4572 7.8632 0 4.8919-2.0657 8.0527-5.5142 9.3016v.1464c4.3215.7148 7.5366 4.9522 7.5366 10.8432 0 4.1168-1.21 6.89-4.3214 9.2412-2.5929 1.9637-6.3266 2.2651-9.2047 2.2651-3.53494 0-7.13038-.2325-10.535675-.2325zm7.8477363-20.5667h2.10887c4.03624 0 7.53654-2.5838 7.53654-9.1724 0-3.6948-1.1667-6.89-3.8547-8.225-1.573-.7751-3.99299-.7751-5.79071-.7751zm0 17.1648c0 3.1091 1.48658 3.6431 3.68191 3.6431 4.9783 0 7.623-3.3417 7.623-9.9475 0-8.7676-4.4425-9.603-9.42076-9.603h-1.88415z"/><path d="m33.9143 43.4072c-.1479 1.1426-.2258 2.293-.2333 3.445 0 6.2527 3.1892 10.7829 7.9428 10.7829 2.9213 0 5.6524-2.3253 6.776-5.8996l.7606.2929c-1.4347 5.6067-4.5289 9.5427-9.1528 9.5427-6.0587-.0345-9.7146-5.5551-9.7146-13.5648 0-7.1484 4.0189-13.5217 9.5849-13.5217 4.4425 0 8.0293 2.98 9.0578 8.9312zm9.5936-1.3608c-.1728-3.445-1.1581-6.3216-4.0794-6.3216s-4.3214 3.0403-5.1857 6.3216z"/><path d="m53.6875 60.8819v-1.1368c1.9274-.1809 2.5151-.1809 2.5151-3.2814v-15.0892c0-2.334-.4927-2.4546-2.0657-3.445v-.5943c1.8842-.8613 3.6819-2.0842 5.5142-3.0402v4.3062c1.1322-1.7225 2.5929-4.5302 4.4943-4.5302 1.2964 0 2.3768.8613 2.3768 2.7474 0 1.3005-.7606 2.2565-1.7286 2.2565-.7174 0-1.4866-1.0076-2.6447-1.0076-.7692 0-2.4287 1.6708-2.4287 2.5837v15.8127c0 3.1005.5878 3.1005 2.8695 3.2814v1.1368z"/><path d="m69.9297 60.8819v-1.1369c2.0138-.1808 2.5929-.1808 2.5929-3.2813v-14.7792c0-2.2651-.6223-3.1608-2.1953-3.755v-.6546c2.0138-.7751 3.8115-1.8517 5.7388-2.7991v4.5216c1.8583-2.4976 3.2843-4.513 6.0846-4.513 3.2325 0 6.5513 3.402 6.5513 7.8633v14.1246c0 3.1005 1.21 3.1005 2.7312 3.2814v1.1368h-8.8503v-1.1455c2.0138-.1808 2.5928-.1808 2.5928-3.2813v-13.1083c0-3.7551-1.573-6.2614-4.4856-6.2614-1.9187-.0258-4.5894 2.5063-4.5894 5.2451v14.1246c0 3.1005.5877 3.1005 2.5151 3.2813v1.1369z"/><path d="m106.348 39.299c0-2.377-1.124-3.1005-2.783-3.1005s-3.9498 1.3177-3.9498 2.8594v1.3177c0 2.2565-.3543 3.8756-2.2903 3.8756-.8038 0-1.3483-1.0679-1.3483-2.0325.0876-1.3663.6641-2.6559 1.6248-3.6345 2.0225-2.2651 5.2896-4.0996 7.8826-4.0996s4.217 2.2048 4.217 5.779v15.9591c0 1.0163 0 2.8077 1.029 2.8077.717 0 1.124-1.2488 1.253-2.024h.718c-.217 2.8594-1.115 4.5302-3.267 4.5302-1.66 0-3.051-2.0325-3.103-4.1168-2.109 2.0843-3.535 4.1168-6.318 4.1168-2.0659 0-3.9932-2.2048-3.9932-5.0728 0-6.5455 6.6382-8.6125 10.2762-10.6623zm0 7.8116c-2.022 1.1972-7.2254 3.1522-7.2254 6.8901 0 2.4459 1.3394 4.4699 3.2324 4.4699 1.729 0 2.688-1.0163 3.993-2.3254z"/><path d="m116.852 60.8819v-1.1368c1.927-.1809 2.515-.1809 2.515-3.2814v-15.0892c0-2.334-.502-2.4546-2.066-3.445v-.5943c1.884-.8613 3.682-2.0842 5.523-3.0402v4.3062c1.115-1.7225 2.549-4.5302 4.477-4.5302 1.305 0 2.377.8613 2.377 2.7474 0 1.3005-.761 2.2565-1.729 2.2565-.717 0-1.478-1.0076-2.645-1.0076-.76 0-2.428 1.6708-2.428 2.5837v15.8127c0 3.1005.587 3.1005 2.869 3.2814v1.1368z"/><path d="m148.383 26.9055c0-1.3694.043-2.7388-1.123-3.445-.497-.3133-1.082-.4611-1.668-.422v-.534c2.16-1.0163 4.183-2.3254 6.335-3.2814v38.679l2.325.9474v.4134l-5.869 2.2737v-4.1168h-.095c-1.521 2.6785-3.587 4.1168-6.188 4.1168-5.566 0-8.643-6.3819-8.643-13.2289 0-7.9321 3.587-13.8317 9.732-13.8317 1.869.1103 3.668.7497 5.186 1.8431zm0 17.2251c0-7.5015-3.95-8.5264-5.341-8.5264-4.659 0-5.972 6.5025-5.972 11.5064 0 10.1283 4.58 11.98 6.508 11.98 1.927 0 3.543-1.3091 4.805-3.1005z"/><path d="m172.156 60.8818v-1.2574c1.841 0 3.457-.2928 3.457-3.3331v-31.9525c0-3.0403-1.616-3.3331-3.318-3.3331v-1.2574h12.1v1.2574c-2.654 0-4.261.2928-4.261 3.3331v14.8997h16.421v-14.8997c0-3.0403-1.607-3.3331-3.95-3.3331v-1.2574h11.945v1.2574c-1.841 0-3.457.2928-3.457 3.3331v31.9525c0 3.0403 1.21 3.3331 3.37 3.3331v1.2574h-11.858v-1.2574c2.343 0 3.95-.2928 3.95-3.3331v-15.4337h-16.421v15.4337c0 3.0403 1.071 3.3331 3.759 3.3331v1.2574z"/><path d="m219.217 34.4846c5.878 0 9.646 6.0288 9.646 13.5906 0 7.7513-3.682 13.47-9.602 13.47-5.921 0-9.421-6.1407-9.421-13.7111 0-7.2173 3.811-13.3495 9.377-13.3495zm.087 25.9238c4.261 0 5.747-6.201 5.747-10.9121 0-5.0556-.544-13.8834-5.695-13.8834-4.4 0-5.705 7.9924-5.705 12.4623s1.262 12.3246 5.653 12.3246z"/><path d="m248.645 61.5367v-4.1771c-1.728 2.5838-4.261 4.1771-6.862 4.1771-4.71 0-5.748-3.0402-5.748-7.3896v-16.3638c0-1.1799-.536-1.49-2.644-1.5503v-1.1024h6.188v20.5582c0 3.0402 1.971 3.8153 4.036 3.8153 3.371 0 5.03-3.1608 5.074-7.3293v-14.3657c0-1.1799-.536-1.49-2.593-1.5502v-1.1283h6.145v20.3256c0 2.5838 1.564 2.5838 2.377 2.5838v.7751z"/><path d="m259.992 52.5707h.536c.804 3.5225 1.729 7.8116 5.117 7.8116 2.593 0 3.898-1.9637 3.898-5.357 0-3.6432-2.775-4.78-4.797-6.3217-2.515-1.9033-4.711-3.3416-4.711-7.5101 0-4.4699 3.095-6.735 6.102-6.735 2.014 0 3.993.9474 5.877 1.8431v6.313h-.717c-.536-3.5742-2.333-7.0279-5.341-7.0279-1.884 0-3.094 1.7914-3.094 4.2374 0 5.1675 10.095 4.9436 10.095 13.6423 0 5.4259-3.544 8.0527-7.226 8.0527-2.076.0322-4.1-.6423-5.739-1.912z"/><path d="m281.747 43.407c-.14 1.1432-.216 2.2934-.225 3.445 0 6.2527 3.19 10.7829 7.943 10.7829 2.913 0 5.653-2.3253 6.768-5.8996l.769.2929c-1.435 5.6067-4.529 9.5427-9.153 9.5427-6.05 0-9.732-5.4862-9.732-13.5303 0-7.1484 4.036-13.5303 9.602-13.5303 4.434 0 8.021 2.9799 9.058 8.9312zm9.602-1.3608c-.181-3.445-1.166-6.3216-4.079-6.3216s-4.321 3.0403-5.186 6.3216z"/><path d="m98.8789 12.3159v-.3704c.726 0 1.0458-.0861 1.0458-.9818v-9.41353c0-.861257-.4754-.981832-1.0112-.981832v-.37034h3.6045v.37034c-.865 0-1.262.301439-1.262 1.154082v8.83648c0 1.3522.337 1.3866 1.616 1.3866.55.0199 1.101-.0205 1.642-.1206.691-.155 1.072-.7062 1.469-1.4383.398-.73203.657-1.30045.951-1.98946h.277l-.752 3.91876z"/><path d="m111.746 4.53027c1.729 0 2.844 1.77419 2.844 4.00484 0 2.23069-1.089 3.97039-2.835 3.97039s-2.775-1.8086-2.775-4.03929c0-2.23065 1.124-3.93594 2.766-3.93594zm0 7.64793c1.262 0 1.729-1.8258 1.729-3.21247 0-1.38662-.156-4.09095-1.677-4.09095-1.296 0-1.677 2.35122-1.677 3.66033 0 1.3091.355 3.64309 1.642 3.64309z"/><path d="m121.31 10.0079c-.484 1.4985-1.158 2.4976-2.454 2.4976-1.729 0-2.645-1.9981-2.645-4.13403 0-2.13591 1.279-3.8412 2.835-3.8412.734 0 2.161.58566 2.161 1.81725 0 .4134-.156.71484-.502.71484-.907 0-.173-2.18758-1.642-2.18758-1.314 0-1.728 1.94643-1.728 3.35889 0 1.60193.605 3.36753 1.979 3.36753.864 0 1.452-.7493 1.789-1.67086z"/><path d="m125.993 5.95982c0-.70623-.32-.91293-.812-.91293-.493 0-1.167.38757-1.167.86126v.37895c0 .67178-.112 1.14547-.683 1.14547-.233 0-.397-.31867-.397-.59427.026-.40254.198-.78187.484-1.06796.581-.69485 1.413-1.13412 2.316-1.22298.812 0 1.253.65456 1.253 1.72251v4.71103c0 .3015 0 .8613.303.8613.302 0 .328-.3703.363-.5943h.216c-.061.8613-.329 1.3264-.968 1.3264-.493 0-.865-.5943-.908-1.2058-.622.6115-1.046 1.2058-1.858 1.2058-.353-.0474-.673-.2291-.894-.507s-.325-.6302-.29-.983c0-1.92922 1.953-2.52349 3.025-3.14359zm0 2.29955c-.588.35312-2.126.93016-2.126 2.01533 0 .7235.398 1.3263.951 1.3263s.795-.3014 1.175-.689z"/><path d="m131.2 5.60692v4.64218c0 .8612.181 1.3866.907 1.3866.354 0 .778-.3876 1.072-.6373.259.1808 0 .4392-.156.6029-.155.2619-.372.4816-.633.6394s-.557.2488-.862.2649c-.951 0-1.348-.9388-1.348-2.0929v-4.80578h-.692v-.16364c.553-.71484 1.158-1.36939 1.686-2.13591v1.42107h1.97l-.311.86126z"/><path d="m134.719 12.3157v-.3359c.587-.0517.76-.0517.76-.9646v-4.21156c0-.37034 0-.86125-.242-1.07657-.141-.09744-.304-.15947-.475-.18086v-.16364c.57-.32728 1.167-.63733 1.729-.93877v6.5714c0 .9129.172.9129.726.9646v.3359zm1.884-11.420266c0 .456466-.259.912926-.631.912926s-.691-.42201-.691-.912926c-.005-.201487.062-.398019.189-.555386.126-.157367.304-.2656036.502-.3058683.311 0 .631.4564653.631.8612543z"/><path d="m141.785 4.53027c1.729 0 2.844 1.77419 2.844 4.00484 0 2.23069-1.089 3.97039-2.835 3.97039s-2.774-1.8086-2.774-4.03929c0-2.23065 1.149-3.93594 2.765-3.93594zm0 7.64793c1.253 0 1.729-1.8258 1.729-3.21247 0-1.38662-.156-4.09095-1.677-4.09095-1.305 0-1.728 2.35122-1.728 3.66033 0 1.3091.432 3.64309 1.728 3.64309z"/><path d="m146.426 12.3158v-.3359c.596-.0517.769-.0517.769-.9646v-4.35795c0-.66316-.19-.93015-.648-1.11101v-.18948c.592-.25404 1.169-.54159 1.728-.86125v1.36939c.554-.73207.968-1.33494 1.807-1.33494.556.07305 1.065.35351 1.422.78495.358.43144.538.98184.505 1.54043v4.15986c0 .9129.363.9129.804.9646v.3359h-2.593v-.3359c.596-.0517.769-.0517.769-.9646v-3.86703c0-1.10241-.466-1.84309-1.322-1.84309-.371.06449-.709.25337-.957.53534s-.393.64008-.409 1.01492v4.15986c0 .9129.182.9129.744.9646v.3359z"/><path d="m158.641 8.647h.268c.164 1.8603.864 3.5484 2.523 3.5484 1.66 0 2.126-1.6709 2.126-2.5838 0-1.77418-1.21-1.98088-2.204-2.48041-1.521-.66317-2.428-1.27466-2.428-3.60005 0-2.14452 1.27-3.53114 2.826-3.53114.406.00523303.807.0979984 1.174.271932.367.173933.692.424918.952.735738l.381-.422017h.181v3.600047h-.181c-.124-.98125-.417-1.93395-.865-2.8163-.141-.27278-.351-.504758-.608-.673673-.257-.168916-.554-.2691-.861-.290937-1.245 0-1.936 1.11102-1.936 2.70434s.864 1.90337 1.806 2.27371c1.435.57704 2.913 1.36079 2.913 3.71201 0 2.50625-1.452 3.44505-3.137 3.44505-.835-.0054-1.639-.3113-2.265-.8613l-.501.646h-.164z"/><path d="m168.259 5.60692v4.64218c0 .8612.181 1.3866.907 1.3866.363 0 .787-.3876 1.072-.6373.26.1808 0 .4392-.164.6029-.153.2635-.37.4844-.632.6424-.261.158-.558.2481-.863.2619-.951 0-1.349-.9388-1.349-2.0929v-4.80578h-.691v-.16364c.562-.71484 1.167-1.36939 1.685-2.13591v1.42107h1.954l-.32.86126z"/><path d="m176.201 12.5052v-1.223c-.21.354-.505.6508-.858.8642-.352.2133-.753.3366-1.165.3588-1.391 0-1.728-.8613-1.728-2.1704v-4.81442c0-.35311-.156-.43924-.778-.46508v-.32727h1.824v6.02877c0 .8613.579 1.1283 1.192 1.1283.994 0 1.478-.9302 1.487-2.1618v-4.20292c0-.35311-.156-.43924-.761-.46508v-.32727h1.807v6.02877c0 .7665.466.7665.708.7665v.2326z"/><path d="m184.322 2.29928c0-.39618 0-.80097-.328-1.01628-.144-.09335-.313-.13862-.484-.12919v-.155025c.622-.292827 1.227-.680391 1.866-.9646053v11.4030203l.683.2842v.1206l-1.728.6631v-1.2057c-.161.351-.416.6501-.739.8633-.322.2132-.698.3318-1.085.3424-1.642 0-2.593-1.8775-2.593-3.89282 0-2.34262 1.055-4.08235 2.87-4.08235.549.0335 1.078.22494 1.521.5512zm0 5.0814c0-2.21342-1.158-2.50625-1.573-2.50625-1.366 0-1.729 1.91199-1.729 3.38473 0 2.98854 1.349 3.53114 1.919 3.53114.291-.0284.571-.1262.816-.2851s.449-.3742.593-.6278z"/><path d="m187.93 12.3157v-.3359c.596-.0517.769-.0517.769-.9646v-4.21156c0-.37034 0-.86125-.242-1.07657-.142-.09627-.305-.1582-.475-.18086v-.16364c.57-.32728 1.158-.63733 1.728-.93877v6.5714c0 .9129.173.9129.735.9646v.3359zm1.867-11.420266c0 .456466-.268.912926-.64.912926s-.7-.38756-.7-.912926c-.005-.200282.061-.395853.186-.553049.124-.157197.3-.2661852.497-.3082053.363 0 .657.4564653.657.8612543z"/><path d="m195.027 4.53027c1.728 0 2.843 1.77419 2.843 4.00484 0 2.23069-1.08 3.97039-2.826 3.97039s-2.774-1.8086-2.774-4.03929c0-2.23065 1.123-3.93594 2.757-3.93594zm0 7.64793c1.253 0 1.728-1.8258 1.728-3.21247 0-1.38662-.155-4.09095-1.677-4.09095-1.296 0-1.676 2.35122-1.676 3.66033 0 1.3091.354 3.64309 1.651 3.64309z"/><path d="m97.1797 71.8198h3.1203v.3445c-.3114 0-.8645 0-.8645.5857 0 .2067.8125 1.955.9425 2.2823l1.019 2.2996c.363-.8613 1.945-3.7379 1.945-4.5475 0-.5426-.493-.5942-.786-.6201v-.3445h2.013v.3445c-.38.112-.536.3359-.734.7493l-2.299 4.8747v4.0651c0 .8613.44.913.959.913v.3445h-3.1114v-.3962c.4754 0 .8644-.0861.8644-.9129v-3.7896l-1.9447-4.5129c-.268-.5426-.5359-1.335-1.1063-1.335z"/><path d="m117.329 77.5469c0 1.8689-.821 5.7273-4.382 5.7273-3.293 0-4.166-3.6603-4.166-5.667 0-4.9092 3.008-5.9685 4.227-5.9685 2.048.0344 4.321 1.8775 4.321 5.9082zm-4.235-5.5637c-1.478 0-2.999 1.7225-2.999 5.6929 0 2.8163 1.037 5.245 2.852 5.245 2.109 0 3.068-2.9799 3.068-5.3914 0-4.0135-1.841-5.5121-2.921-5.5121z"/><path d="m122.258 83.0764v-.3617c.588 0 .864-.0861.864-.9129v-8.7245c0-.8613-.44-.913-.907-.913v-.3445h3.146v.3445c-.562 0-1.011.0775-1.011.913v4.5818l2.679-3.7981c.273-.3219.452-.712.518-1.1282 0-.5512-.639-.5512-.916-.5685v-.3445h2.904v.3445c-.385.0546-.752.2003-1.069.4251s-.576.522-.754.8668l-2.126 3.0144 3.509 5.8651c.096.1359.227.2441.378.3136.152.0696.32.0981.486.0826v.3445h-1.945l-3.301-5.4-.398.5167v3.6603c0 .8613.449.913 1.037.913v.3445z"/><path d="m143.098 77.5469c0 1.8689-.865 5.7273-4.382 5.7273-3.284 0-4.157-3.6603-4.157-5.667 0-4.9092 3.007-5.9685 4.217-5.9685 2.057.0344 4.322 1.8775 4.322 5.9082zm-4.235-5.5637c-1.47 0-2.991 1.7225-2.991 5.6929 0 2.8163 1.029 5.245 2.844 5.245 2.117 0 3.068-2.9799 3.068-5.3914 0-4.0135-1.832-5.5121-2.921-5.5121z"/><path d="m147.98 83.0764v-.3617c.502 0 .943-.0861.943-.9129v-8.7245c0-.8613-.441-.913-.865-.913v-.3445h3.233v.3445c-.726 0-1.167.0775-1.167.913v4.0737h4.494v-4.0737c0-.8613-.441-.913-1.08-.913v-.3445h3.267v.3445c-.501 0-.951.0775-.951.913v8.7761c0 .8613.337.913.925.913v.3445h-3.241v-.3962c.639 0 1.08-.0861 1.08-.9129v-4.2202h-4.494v4.2718c0 .8613.294.913 1.028.913v.3445z"/><path d="m161.336 83.0766v-.3617c.195-.0376.373-.1324.514-.272.14-.1397.235-.3179.272-.5118l2.507-8.69-.225-.491c.4-.3525.739-.7687 1.003-1.2315l2.869 9.7235c.268.9302.415 1.3694 1.081 1.4986v.3445h-3.207v-.3703c.372 0 1.029 0 1.029-.6546 0-.4651-.683-2.5838-.865-3.2814h-2.921c-.13.5943-.864 2.8163-.864 3.2383 0 .6374.639.6374.985.6977v.3445zm2.195-4.7197h2.671l-1.392-4.6077z"/><path d="m173.434 83.0764v-.3617c.656 0 1.097-.0861 1.097-.9129v-8.871c0-.7062-.501-.7062-.968-.7665v-.3445h2.109l3.276 9.2413 3.059-9.2413h1.945v.3445c-.64.0603-.916.1637-.916 1.0594v8.6297c0 .8613.337.913.916.913v.3445h-3.198v-.3962c.864-.0861 1.02-.1981 1.046-.9129v-8.5609l-3.198 9.8269h-.216l-3.457-9.7063v8.4919c0 .689.432.913 1.123.913v.3445z"/><path d="m188.457 83.0766v-.3617c.194-.0387.372-.1338.512-.2733.14-.1394.236-.3171.275-.5105l2.523-8.69-.224-.491c.404-.3459.741-.7634.993-1.2315l2.879 9.7235c.276.9302.414 1.3694 1.08 1.4986v.3445h-3.207v-.3703c.381 0 1.038 0 1.038-.6546 0-.4651-.683-2.5838-.865-3.2814h-2.938c-.121.5943-.865 2.8163-.865 3.2383 0 .6374.657.6374.994.6977v.3445zm2.195-4.7197h2.662l-1.383-4.6077z"/><path d="m97.1797 71.8198h3.1203v.3445c-.3114 0-.8645 0-.8645.5857 0 .2067.8125 1.955.9425 2.2823l1.019 2.2996c.363-.8613 1.945-3.7379 1.945-4.5475 0-.5426-.493-.5942-.786-.6201v-.3445h2.013v.3445c-.38.112-.536.3359-.734.7493l-2.299 4.8747v4.0651c0 .8613.44.913.959.913v.3445h-3.1114v-.3962c.4754 0 .8644-.0861.8644-.9129v-3.7896l-1.9447-4.5129c-.268-.5426-.5359-1.335-1.1063-1.335z"/><path d="m117.329 77.5469c0 1.8689-.821 5.7273-4.382 5.7273-3.293 0-4.166-3.6603-4.166-5.667 0-4.9092 3.008-5.9685 4.227-5.9685 2.048.0344 4.321 1.8775 4.321 5.9082zm-4.235-5.5637c-1.478 0-2.999 1.7225-2.999 5.6929 0 2.8163 1.037 5.245 2.852 5.245 2.109 0 3.068-2.9799 3.068-5.3914 0-4.0135-1.841-5.5121-2.921-5.5121z"/><path d="m122.258 83.0764v-.3617c.588 0 .864-.0861.864-.9129v-8.7245c0-.8613-.44-.913-.907-.913v-.3445h3.146v.3445c-.562 0-1.011.0775-1.011.913v4.5818l2.679-3.7981c.273-.3219.452-.712.518-1.1282 0-.5512-.639-.5512-.916-.5685v-.3445h2.904v.3445c-.385.0546-.752.2003-1.069.4251s-.576.522-.754.8668l-2.126 3.0144 3.509 5.8651c.096.1359.227.2441.378.3136.152.0696.32.0981.486.0826v.3445h-1.945l-3.301-5.4-.398.5167v3.6603c0 .8613.449.913 1.037.913v.3445z"/><path d="m143.098 77.5469c0 1.8689-.865 5.7273-4.382 5.7273-3.284 0-4.157-3.6603-4.157-5.667 0-4.9092 3.007-5.9685 4.217-5.9685 2.057.0344 4.322 1.8775 4.322 5.9082zm-4.235-5.5637c-1.47 0-2.991 1.7225-2.991 5.6929 0 2.8163 1.029 5.245 2.844 5.245 2.117 0 3.068-2.9799 3.068-5.3914 0-4.0135-1.832-5.5121-2.921-5.5121z"/><path d="m147.98 83.0764v-.3617c.502 0 .943-.0861.943-.9129v-8.7245c0-.8613-.441-.913-.865-.913v-.3445h3.233v.3445c-.726 0-1.167.0775-1.167.913v4.0737h4.494v-4.0737c0-.8613-.441-.913-1.08-.913v-.3445h3.267v.3445c-.501 0-.951.0775-.951.913v8.7761c0 .8613.337.913.925.913v.3445h-3.241v-.3962c.639 0 1.08-.0861 1.08-.9129v-4.2202h-4.494v4.2718c0 .8613.294.913 1.028.913v.3445z"/><path d="m161.336 83.0766v-.3617c.195-.0376.373-.1324.514-.272.14-.1397.235-.3179.272-.5118l2.507-8.69-.225-.491c.4-.3525.739-.7687 1.003-1.2315l2.869 9.7235c.268.9302.415 1.3694 1.081 1.4986v.3445h-3.207v-.3703c.372 0 1.029 0 1.029-.6546 0-.4651-.683-2.5838-.865-3.2814h-2.921c-.13.5943-.864 2.8163-.864 3.2383 0 .6374.639.6374.985.6977v.3445zm2.195-4.7197h2.671l-1.392-4.6077z"/><path d="m173.434 83.0764v-.3617c.656 0 1.097-.0861 1.097-.9129v-8.871c0-.7062-.501-.7062-.968-.7665v-.3445h2.109l3.276 9.2413 3.059-9.2413h1.945v.3445c-.64.0603-.916.1637-.916 1.0594v8.6297c0 .8613.337.913.916.913v.3445h-3.198v-.3962c.864-.0861 1.02-.1981 1.046-.9129v-8.5609l-3.198 9.8269h-.216l-3.457-9.7063v8.4919c0 .689.432.913 1.123.913v.3445z"/><path d="m188.457 83.0766v-.3617c.194-.0387.372-.1338.512-.2733.14-.1394.236-.3171.275-.5105l2.523-8.69-.224-.491c.404-.3459.741-.7634.993-1.2315l2.879 9.7235c.276.9302.414 1.3694 1.08 1.4986v.3445h-3.207v-.3703c.381 0 1.038 0 1.038-.6546 0-.4651-.683-2.5838-.865-3.2814h-2.938c-.121.5943-.865 2.8163-.865 3.2383 0 .6374.657.6374.994.6977v.3445zm2.195-4.7197h2.662l-1.383-4.6077z"/></g></svg>