<svg fill="none" height="68" viewBox="0 0 360 68" width="360" xmlns="http://www.w3.org/2000/svg"><g fill="#fff"><path d="m116.776 45.916c.008.1754.072.3436.182.4805.11.1368.26.2353.43.2811 1.201.3189 2.445.4474 3.686.3809v.476h-12.622v-.476c1.326.1166 2.662-.0313 3.931-.4353.107-.1028.191-.2279.245-.3665.054-.1387.077-.2874.068-.4359v-33.0905c.029-.247-.033-.4962-.177-.6997-.143-.2034-.356-.3466-.599-.402-1.118-.261-2.265-.3843-3.414-.3672v-.4352c2.721-.3401 5.441-.6529 8.243-.97928zm12.322-35.93308c-.502.28568-.912.70878-1.182 1.21958s-.388 1.088-.341 1.6638c-.088.6613.034 1.3335.349 1.9217.314.5882.806 1.0625 1.405 1.356.418.1356.869.1306 1.285-.0143.415-.1449.771-.4217 1.014-.7881.468-.6894.726-1.5005.74-2.334.015-.8334-.214-1.653-.659-2.3582-.285-.4028-.705-.69103-1.183-.81311s-.984-.07011-1.428.14663zm-111.1451.33998h-17.748889v.4081c2.720139 0 4.705849.1496 5.331479.9248.30029.4888.43834 1.0601.39442 1.6321v31.6897c-.00376.2753-.07831.545-.21646.7832s-.33526.4368-.57238.5768c-1.65779.5396-3.39956.7746-5.14107.6937v.4896h28.0175l.1088-17.6809h-.4897c0 5.0458-.6256 10.0373-3.4137 13.6687-2.7882 3.6314-6.8004 3.9714-11.4382 3.0601-.6529-.1224-1.6049-.4216-1.6865-1.36v-31.2273c0-.816.0816-1.9857.816-2.4753 1.3601-.7752 3.7538-.7616 5.9571-.8432zm62.4953 1.1833h-.7616c0 5.6715-1.2513 10.2685-5.5491 12.8527-.4229.235-.8829.396-1.3601.476 0 0 0 .4896 0 .476 1.1017 0 3.5498 0 3.5362 0v17.4089c.1088 2.1626.4352 3.2506 1.6185 4.3387.6241.4772 1.3402.8202 2.1032 1.0074s1.5565.2147 2.3306.0806c.5472-.0954 1.0641-.3189 1.5085-.6521.4444-.3333.8036-.767 1.0485-1.2656.9384-1.8089.6392-7.1268.7072-10.8805h-.5168v6.3379c-.0952 2.0265-.1496 4.2978-1.6321 5.2227-.2666.1601-.5684.2526-.879.2692s-.6205-.0432-.9027-.174c-1.1425-.6121-1.1833-1.6049-1.2377-3.1282v-18.5378h4.9099v-1.5233h-4.9235zm-21.5707-1.60488h-.8841l-6.3515 23.69248c-.739 3.1788-1.647 6.3159-2.7201 9.3981-.8977 2.1489-2.5298 4.0802-5.1003 4.0802v.4624h10.8806v-.5032c-1.0373.0968-2.0805-.1062-3.0058-.5849-.4435-.217-.8197-.5506-1.088-.9651-.2684-.4145-.4188-.8943-.4353-1.3878.2684-3.2269.87-6.4174 1.7953-9.5205h8.1605c.884 3.4546 1.9721 7.018 2.8561 10.4318.0895.2594.0984.5398.0256.8044s-.224.5009-.4336.678c-1.3601.6665-3.4682.5305-5.1683.5849v.476h16.1033v-.4216c-1.3242.105-2.6563-.0333-3.9307-.4081-.8024-.5032-.9112-1.5096-1.2376-2.3121zm1.1696 24.12768h-7.9292l3.849-14.6072zm109.8259-11.1798c-2.883.612-3.795 3.985-4.257 6.5963 0-2.1761 0-4.4066 0-6.5963-2.72.272-5.536.612-8.161.8432v.4625c1.178-.0989 2.364-.0024 3.509.2856.246.0523.465.1938.613.3971.148.2034.216.4543.19.7045v19.9387c0 .6256-.109.7344-.367.9248-.952.7345-2.53.5713-3.917.6257-.014.1674-.014.3357 0 .5032h12.458v-.5576c-1.28.0725-2.564-.0467-3.808-.3537-.163-.0728-.299-.1944-.389-.348-.09-.1535-.13-.3314-.115-.5088l-.081-12.6351.408-3.4817c.612-3.1826 1.36-5.2363 3.128-6.1476 1.36-.6936 2.367.204 2.122.9657-.157-.0349-.319-.036-.476-.0031-.158.0328-.306.0988-.435.1935-.358.2737-.643.6319-.828 1.0426s-.265.8609-.233 1.3103c-.104.6509-.033 1.3178.206 1.9321s.637 1.1538 1.154 1.5633c.336.1537.709.2085 1.075.158.366-.0506.71-.2045.992-.4436 1.442-1.3601 1.279-3.713.598-5.3723-.235-.6866-.709-1.266-1.336-1.6329-.626-.3668-1.363-.4968-2.077-.3664zm-37.742-.0544c-1.496.1496-5.549.5304-8.16.952v.5033c1.153-.1872 2.332-.141 3.468.136.653.2448.802.7888.802 1.7409v18.1977c0 .9249.082 1.7545-.34 2.1489s-2.57.5033-3.93.5849c-.01.163-.01.3265 0 .4896h12.417v-.4896c-1.268.0986-2.542-.0492-3.754-.4353-.153-.0803-.282-.2017-.371-.3505-.088-.1489-.134-.3194-.132-.4927zm148.248-22.7811993c-.626 2.2305193-1.85 6.0115193-2.516 7.9156093h.652c1.36-2.31212 4.489-7.92921 4.516-7.92921zm71.186 10.1868993c-1.418-.88381-3.041-1.38368-4.71-1.45044-1.669-.06677-3.327.30185-4.811 1.06965-7.589 4.65149-9.588 14.32159-8.242 23.20279.98 6.474 4.584 12.5399 10.949 13.8184 4.366.8704 7.929-1.9041 10.173-4.7739 5.196-6.5011 5.644-17.2865 2.421-24.8485-1.257-2.8309-3.271-5.2596-5.821-7.018zm0 3.373c2.326 6.2563 2.108 14.2128 1.632 21.0131-.449 3.7674-1.115 7.7524-3.672 10.527-.63.5715-1.397.9697-2.227 1.1557-.829.1859-1.693.1532-2.506-.0949-3.523-1.4961-4.461-5.7259-5.073-9.2621-.83-7.5484-1.156-15.4504 1.101-22.5363.844-2.4482 2.503-5.10031 5.441-5.10031 2.937 0 4.447 2.12171 5.263 4.29781zm-59.299-4.20261h-26.494v.53043c3.114.13598 5.766.068 5.753 1.76808v29.4592 3.6585c-.082 1.3601-3.985 1.3601-5.767 1.3601v.5984h27.827v-17.1913h-.517c-.13 3.7313-.903 7.4122-2.285 10.8806-.552 1.4264-1.472 2.6812-2.667 3.6367-1.194.9556-2.62 1.5778-4.133 1.8036-2.061.1906-4.137.1036-6.175-.2584-.666-.1768-.911-.4488-.925-1.3601v-16.6745c7.331-.3536 7.44 3.5362 7.562 6.2156.123 2.6793.123 3.2369.109 4.6786h.571v-22.8764h-.516c-.096 1.9041-.136 3.5634-.341 5.4403-.204 1.8769 0 5.9571-7.385 5.8483v-14.4848c0-2.0129 2.204-2.40728 3.292-2.42088 2.543 0 5.766-.44882 7.63 1.52328 3.141 3.3186 3.645 7.3852 3.917 12.4719h.489zm-53.614.09521v14.7704h.557c.272-4.2979.708-7.6164 2.38-10.8126 1.782-3.42738 4.652-3.237 7.222-3.4138 1.172-.14026 2.36-.07583 3.509.1904.081.1029.125.2298.125.3605 0 .1306-.044.2575-.125.3604-.095.2448-15.355 31.9888-17.218 35.8514h24.019v-17.3681h-.503c-.245 5.0595-.789 9.5205-3.169 13.2607-1.728 2.7202-4.557 3.2778-7.807 3.441-1.771.1798-3.556.1433-5.318-.1088-.313-.1088-.204-.6936 0-.9928.204-.2993 17.082-35.3619 17.123-35.5387zm61.312-.12241v.51683c2.189 0 4.311-.06801 5.59.72088.181.1037.329.2577.426.4434.096.1858.137.3954.118.6038v32.8049c.017.2422-.03.4847-.138.7023-.107.2176-.271.4025-.474.5354-.83.5712-3.795.5712-5.59.612v.5304h17.517v-.5168c-1.691.1165-3.391.0205-5.059-.2856-.68-.1904-.898-.6528-.938-1.5505v-16.9873c2.32-.0773 4.644.0228 6.949.2993 1.456.3536 2.013 1.7136 2.149 3.3321.259 3.0602 0 6.3108.177 9.3165.123 2.2033.313 4.5291 2.068 6.0795.595.3959 1.28.6379 1.992.7044.712.0664 1.429-.0447 2.088-.3236 2.625-1.36 2.013-6.9771 1.89-8.5004h-.353c.301 2.2392.092 4.5176-.612 6.6644-.408.952-1.85 1.9177-2.081-.5033-.313-3.0873 0-6.4195-.585-9.3845-.585-3.4273-2.557-7.0451-6.134-7.9972 6.882-1.5641 7.929-4.4474 7.848-9.5205-.041-2.0982-.872-4.1038-2.327-5.6165-1.454-1.5126-3.426-2.42106-5.521-2.5439-3.223-.24482-19-.13601-19-.13601zm20.714 2.95131c1.36 2.7202 1.36 6.1748.952 9.2893-.3 2.421-1.524 4.4067-3.768 4.8827-2.106.3537-4.246.4677-6.378.34v-15.6c0-.5712.204-.9793.598-1.1425 2.361-.47606 4.809-.25393 7.045.6393.667.3604 1.208.9155 1.551 1.5912zm-218.115 11.5743c-.945-.7743-2.109-1.2338-3.3283-1.3143-1.2193-.0804-2.4332.2221-3.4721.8654-1.3653.867-2.5163 2.0321-3.3667 3.4078s-1.378 2.9262-1.5431 4.535c-.9385 5.6987-.5305 11.683 4.0802 15.1784.9394.5588 1.9886.9077 3.0756 1.0228 1.0869.115 2.1864-.0065 3.2214-.3563 3.427-.9385 4.978-4.8283 4.842-9.3709h-.354c0 1.5505 0 8.5684-5.7936 9.2077-.6774.0716-1.3609-.0595-1.9638-.3767-.6028-.3172-1.098-.8062-1.4227-1.405-1.7953-2.8018-1.5369-6.5284-1.5505-9.9966h11.0306c.224-3.2527-.394-6.5084-1.796-9.4524-.419-.7518-.983-1.4129-1.659-1.9449zm-.354 4.257c.117 2.2017.117 4.4081 0 6.6099h-7.2896c0-4.8554.2584-11.5606 4.2706-11.683 2.571.0408 3.019 2.6657 3.019 5.0731zm118.068-4.9643c-.946-.7726-2.108-1.2322-3.326-1.315-1.219-.0828-2.433.2151-3.474.8526-1.366.8662-2.518 2.0311-3.368 3.407-.851 1.3758-1.378 2.9267-1.542 4.5358-.939 5.6987-.531 11.683 4.08 15.1784.939.561 1.987.9123 3.074 1.0297s2.187-.0019 3.223-.3497c3.428-.9384 4.978-4.8418 4.829-9.3845h-.34c0 1.5505-.001 8.5549-5.794 9.2213-.69.0925-1.392-.024-2.015-.3343s-1.139-.8002-1.481-1.4066c-1.781-2.8153-1.523-6.5283-1.55-9.9965h11.044c.225-3.2485-.393-6.5001-1.796-9.4389-.369-.7612-.887-1.441-1.523-1.9993zm-.313 4.2434c.109 2.285.177 4.0802 0 6.6236h-7.303c0-4.8691.258-11.5606 4.27-11.683 2.571.0408 2.965 2.6521 3.074 5.0594zm-69.241-3.5361c-.937-.7581-2.086-1.2081-3.288-1.2885-1.203-.0803-2.401.2129-3.431.8396-1.366.8655-2.518 2.0302-3.369 3.4062s-1.377 2.9273-1.541 4.5366c-.938 5.6987-.544 11.683 4.081 15.1784.939.5588 1.988.9077 3.075 1.0228 1.087.115 2.186-.0065 3.222-.3563 3.427-.9385 4.978-4.8283 4.842-9.3709h-.354c0 1.5505 0 8.5684-5.794 9.2077-.684.08-1.376-.0469-1.987-.3646-.611-.3176-1.113-.8113-1.44-1.4171-1.796-2.8018-1.537-6.5284-1.551-9.9966h11.044c.213-3.2535-.409-6.5075-1.809-9.4524-.419-.7518-.983-1.4129-1.659-1.9449zm-.299 4.257c.109 2.2985.163 4.0802 0 6.6099h-7.304c0-4.8554.272-11.5606 4.271-11.683 2.584.0408 2.951 2.6657 3.074 5.0731zm50.649-19.31304c-3.291.29922-6.8.72084-10.187 1.08806v.50318c1.773-.2333 3.572-.1551 5.318.2313.53.1768.734.7344.707 1.36v15.9537.2992c-.245-2.3665-.653-4.6243-2.326-5.7531-.539-.3426-1.157-.5412-1.796-.5769-.638-.0358-1.274.0926-1.849.3729-3.699 1.7273-5.44 6.2019-5.875 9.8605s0 9.1805 2.598 12.5806c.575.8428 1.382 1.5007 2.323 1.8942.942.3935 1.977.5056 2.981.3228 2.72-.4489 3.577-3.4138 3.944-6.7188v6.8004c2.72-.3537 7.889-1.1017 8.161-1.1697-.014-.1311-.014-.2633 0-.3944 0 0-1.646.0952-2.054.068s-1.972 0-1.999-1.2377c.027-.9656.054-35.48424.054-35.48424zm-5.019 16.98734c.666 3.3796.903 6.8295.708 10.2685-.15 3.3594-.3 7.086-1.809 9.1805-.789 1.156-4.788 3.1825-5.441-5.1819-.418-4.8804-.166-9.795.748-14.6072.062-.655.312-1.2782.72-1.7946s.956-.9039 1.579-1.1159c.775-.2584 2.693-.0136 3.495 3.2506zm-168.4038-22.37322c-.3823.55866-.6134 1.20689-.6706 1.88146-.0572.67458.0614 1.35247.3442 1.96754.13.28385.3419.52232.6085.68472.2667.1624.5758.24129.8876.22653.208-.00937.4118-.06127.599-.1525.1871-.09123.3536-.21985.4891-.37793.2464.46496.3603.98874.3291 1.51406s-.2062 1.03194-.5059 1.46454c-.3409.3954-.7568.7192-1.2238.9527-.4669.2335-.9755.3719-1.4964.4073 0 .272.0816.6665.0816.6665.6799-.011 1.3483-.1772 1.9541-.486s1.133-.752 1.5413-1.2957c1.1153-1.63212 1.3601-5.54912.204-7.24921-.1759-.2441-.4037-.44625-.667-.59198-.2632-.14572-.5555-.2314-.8558-.2509-.3002-.0195-.6011.02767-.881.13812s-.5319.28145-.738.50075z"/><path d="m94.125 67.514h1.5913v-9.8333h-1.5913v-.1768h4.6242v.204h-1.5912v9.8333h2.5569c.3681.0195.7361-.0409 1.0791-.177.343-.1362.652-.3449.907-.6118.523-.6172.883-1.3562 1.047-2.1489h.163v3.1417h-8.786z"/><path d="m104.329 64.6442c-.012-.4725.096-.9404.313-1.3601.192-.3973.46-.7531.789-1.0472.315-.2888.678-.5191 1.074-.6801.375-.1577.777-.2409 1.183-.2448.403.004.8.0871 1.17.2448.396.161.76.3913 1.075.6801.328.2941.596.6499.788 1.0472.218.4197.325.8876.313 1.3601.003.4379-.095.8705-.285 1.2649-.186.3939-.444.7493-.762 1.0472-.31.2952-.669.5344-1.061.7072-.39.1714-.812.2594-1.238.2585-.426.0038-.848-.0843-1.237-.2585-.398-.1691-.762-.4087-1.075-.7072-.317-.2979-.576-.6533-.761-1.0472-.191-.3944-.288-.827-.286-1.2649zm1.442 0c-.015.5442.04 1.0882.163 1.6185.061.336.201.6528.408.9248.155.2043.368.3563.612.4352.239.0669.486.0989.734.0952.248.0019.496-.0301.735-.0952.238-.0829.446-.2343.598-.4352.207-.2739.35-.5895.422-.9248.111-.5321.161-1.0751.15-1.6185.004-.4873-.032-.9741-.109-1.4553-.065-.3304-.184-.6476-.354-.9384-.142-.2328-.35-.4176-.598-.5305-.281-.1106-.583-.157-.884-.136-.294-.0063-.586.0493-.857.1632-.245.1187-.452.3022-.599.5305-.169.2908-.289.608-.353.9384-.062.4734-.085.951-.068 1.4281z"/><path d="m118.241 66.1401c0 .0907-.054.2403-.163.4488-.102.2129-.235.4099-.394.5849-.204.222-.448.4022-.721.5304-.37.1542-.769.2284-1.17.2176-.387-.0009-.772-.0605-1.142-.1768-.392-.1111-.758-.3008-1.075-.5576-.342-.2627-.617-.603-.802-.9929-.215-.478-.318-.9993-.299-1.5233-.016-.4669.072-.9314.258-1.36.168-.3939.413-.75.721-1.0473.302-.3055.663-.5461 1.061-.7072.432-.1717.895-.2549 1.36-.2448.27-.0011.54.0309.802.0952.264.052.517.1486.748.2856.223.1225.413.2947.558.5032.152.219.229.4816.218.748.004.1861-.065.3664-.191.5033-.154.1331-.354.2013-.557.1904-.161-.0022-.318-.0394-.463-.1088-.07-.0309-.128-.0829-.167-.1488-.039-.0658-.057-.1422-.05-.2184.003-.1675.035-.3331.095-.4897.058-.1522.09-.3131.095-.476-.001-.1063-.032-.2101-.09-.2992-.058-.0892-.14-.16-.236-.204-.262-.1123-.549-.15-.83-.1088-.22.0007-.439.0281-.653.0816-.243.0654-.461.2029-.626.3944-.215.2817-.368.6063-.448.952-.142.5644-.206 1.1456-.191 1.7273-.001.3914.026.7823.082 1.1697.046.3301.142.6512.285.952.134.2614.33.4857.572.6529.295.1623.629.2422.965.2312.355.0104.707-.0545 1.034-.1904.249-.097.473-.2507.653-.4488.149-.1593.268-.3434.353-.5441.082-.1768.136-.3264.177-.4352z"/><path d="m125.762 67.5547c-.14.102-.29.1887-.449.2584-.204.076-.421.1129-.639.1088-.357.0353-.714-.0722-.993-.2992-.224-.2252-.372-.5156-.421-.8296-.049.1115-.104.2204-.163.3264-.081.1449-.187.274-.313.3808-.165.1346-.355.2362-.558.2992-.281.0895-.575.1309-.87.1224-.327.0069-.654-.0391-.966-.136-.208-.0728-.398-.1887-.558-.34-.129-.1221-.224-.2772-.272-.4488-.018-.1582-.018-.3179 0-.476-.017-.2822.055-.5627.204-.8025.136-.1991.318-.3624.531-.476.228-.1264.47-.2268.721-.2992l.788-.2448.789-.272c.179-.0665.344-.1631.49-.2857.113-.1122.193-.2534.231-.408.027-.2304.027-.4632 0-.6936.015-.2038.015-.4083 0-.612-.026-.1628-.081-.3195-.163-.4625-.077-.1298-.19-.234-.326-.2992-.185-.079-.385-.1161-.585-.1088-.27-.0127-.538.0484-.776.1768-.098.0479-.18.1238-.236.2181-.055.0944-.082.203-.076.3123-.014.163-.014.3267 0 .4897.009.1176.009.2359 0 .3536.001.0628-.011.1252-.034.1836-.024.0584-.058.1115-.102.1564-.123.0883-.272.1315-.422.1224-.313 0-.517 0-.585-.1632-.089-.137-.132-.2991-.122-.4624.003-.2083.054-.4131.149-.5984.101-.2016.245-.3782.422-.5169.214-.1578.453-.2775.707-.3536.315-.086.64-.1272.966-.1224.378-.0104.756.0448 1.115.1632.269.097.515.25.721.4488.172.1773.302.3912.381.6257.078.2415.114.4943.109.748v3.577c-.017.1957.03.3916.136.5576.046.0506.103.0903.166.1162.064.0259.132.0373.201.0334.113.0121.227.0121.34 0 .114-.0482.223-.1074.326-.1768zm-2.516-3.3594c0 .1225-.177.2449-.476.3809l-1.074.4216c-.282.1058-.527.2898-.708.5304-.172.2463-.258.5428-.244.8433-.013.1448-.013.2904 0 .4352.026.1478.076.2903.149.4216.086.1191.197.2168.327.2856.167.088.355.1302.544.1224.295.0259.592-.0458.843-.204.194-.1224.349-.2968.449-.5032.096-.2077.165-.4272.204-.6528.012-.213.012-.4264 0-.6393z"/><path d="m126.184 61.584h1.115v-1.8905h.217c.113.0195.228.0195.34 0 .122.0166.246.0166.368 0 .111-.0406.216-.0955.313-.1632v2.0537h2.04v.204h-2.04v4.7058c-.007.2206.02.4408.081.6529.032.1473.102.2835.204.3944.075.0804.168.1412.272.1768h.299c.155.0059.31-.0242.451-.0879.142-.0637.267-.1593.365-.2793.204-.2415.34-.5324.395-.8433l.204.068c-.035.1437-.081.2846-.136.4217-.063.1578-.15.3047-.259.4352-.13.1514-.293.2722-.476.3536-.228.0945-.473.1408-.72.136-.535.0566-1.07-.0944-1.497-.4216-.147-.1549-.261-.3389-.334-.5403-.072-.2014-.102-.4158-.087-.6294v-4.5834h-1.115z"/><path d="m131.285 67.5139h1.102v-5.7667h-1.102v-.1632h2.339v5.9707h1.102v.2041h-3.441zm.925-9.3164c-.001-.0998.019-.1986.059-.29s.098-.1734.172-.2405c.066-.0751.148-.1348.24-.1748.091-.04.191-.0592.291-.0564.202 0 .395.0803.538.2231s.223.3366.223.5386c.002.1005-.016.2004-.054.2936s-.094.1779-.165.249-.155.1272-.249.1648c-.093.0376-.193.056-.293.0542-.099.0019-.197-.0164-.288-.0538s-.174-.0932-.243-.1638c-.074-.0697-.133-.1541-.173-.2477-.039-.0937-.059-.1946-.058-.2963z"/><path d="m135.923 64.6442c-.012-.4725.095-.9404.313-1.3601.192-.3973.46-.7531.788-1.0472.315-.2888.679-.5191 1.075-.6801.37-.1577.767-.2408 1.17-.2448.406.0039.808.0871 1.183.2448.811.3295 1.473.9437 1.863 1.7273.217.4197.325.8876.313 1.3601.002.4379-.095.8705-.286 1.2649-.157.4126-.393.7912-.693 1.1152-.313.2985-.677.5381-1.075.7072-.389.1726-.811.2606-1.237.2585-.422.0023-.84-.0858-1.224-.2585-.398-.1691-.762-.4087-1.075-.7072-.318-.2979-.576-.6533-.762-1.0472-.224-.409-.345-.8665-.353-1.3329zm1.441 0c-.011.5434.039 1.0864.15 1.6185.072.3353.215.6509.422.9248.154.2043.368.3563.612.4352.234.0677.477.0998.721.0952.248.0037.495-.0283.734-.0952.244-.0789.457-.2309.612-.4352.201-.2751.341-.5906.408-.9248.123-.5303.178-1.0743.163-1.6185.005-.4873-.032-.9741-.109-1.4553-.064-.3304-.184-.6476-.353-.9384-.147-.2283-.354-.4118-.599-.5305-.271-.1139-.563-.1695-.856-.1632-.29-.0064-.577.0492-.844.1632-.248.1129-.456.2977-.598.5305-.17.2908-.289.608-.354.9384-.077.4812-.113.968-.109 1.4553z"/><path d="m143.77 67.5139h1.115v-5.7667h-1.115v-.1632h2.325v1.5505c.071-.1639.153-.3229.245-.4761.123-.2096.274-.4017.449-.5712.218-.1865.46-.3421.721-.4624.337-.1336.698-.1984 1.061-.1904.55-.0262 1.092.137 1.536.4624.209.1771.372.4017.477.6549.104.2532.146.5276.122.8004v4.2026h1.115v.204h-3.373v-.204h1.102v-4.6107c.016-.328-.075-.6524-.259-.9248-.093-.1372-.219-.2489-.366-.3249s-.311-.1139-.477-.1103c-.307-.007-.611.0631-.884.204-.281.132-.532.322-.734.5576-.213.2493-.379.535-.49.8433-.122.34-.182.6994-.177 1.0608v3.2506h1.102v.204h-3.455z"/><path d="m157.562 64.6307h.164c.083.4675.22.9239.408 1.3601.142.3158.33.609.557.8704.181.2109.392.3942.626.544.217.1139.445.2051.68.272.21.0507.424.0826.639.0952h.585c.429.0127.855-.0661 1.251-.2312.303-.1287.569-.3295.776-.5848.185-.2241.324-.483.408-.7616.066-.244.103-.4952.108-.7481.006-.3011-.059-.5992-.19-.8704-.123-.2294-.284-.4363-.476-.6121-.189-.1641-.399-.3014-.626-.408-.206-.097-.42-.1788-.639-.2448l-1.646-.5032c-.654-.1698-1.26-.4913-1.768-.9385-.201-.2115-.358-.4614-.461-.7347-.103-.2734-.149-.5647-.137-.8565-.002-.4103.076-.817.231-1.1969.143-.3625.366-.688.653-.9521.284-.2789.621-.4965.993-.6392.408-.1548.842-.2331 1.278-.2312.284-.0083.568.0237.844.0952.199.0492.394.1128.584.1904l.436.1904c.124.0543.258.082.394.0816.08.0208.165.0208.245 0 .077-.0747.142-.1621.19-.2584h.191v2.5297h-.164c-.058-.3464-.158-.6845-.299-1.0064-.129-.3114-.313-.597-.544-.8433-.22-.2505-.488-.4541-.789-.5984-.344-.1465-.714-.2206-1.088-.2176-.257.0006-.512.0326-.761.0952-.279.0518-.544.1631-.776.3264-.244.149-.449.3541-.598.5985-.174.2863-.259.6175-.245.952-.006.2708.059.5384.191.7752.121.2187.288.4088.489.5577.198.1539.418.2777.653.3672l.748.272 1.741.544.68.2313c.296.0958.572.2432.816.4352.28.2003.513.4605.68.7616.193.3685.287.7811.272 1.1969.002.4423-.081.8809-.245 1.292-.164.4038-.409.7695-.721 1.0745-.332.3227-.725.5769-1.156.748-.483.1961-1.001.2932-1.523.2857h-.53-.436-.408l-.435-.1089-.625-.204c-.184-.0641-.377-.1007-.572-.1088-.106-.0132-.214.0161-.299.0816-.059.0683-.105.1466-.136.2312h-.218z"/><path d="m166.469 61.584h1.101v-1.8905h.218c.113.0195.228.0195.34 0 .126.0161.254.0161.381 0 .106-.0408.207-.0957.299-.1632v2.0537h2.04v.204h-1.999v4.7058c-.007.2206.02.4408.081.6529.043.1431.112.277.204.3944.08.081.178.1417.286.1768.095.0122.191.0122.286 0 .155.0059.309-.0242.451-.0879.141-.0637.266-.1593.365-.2793.203-.2415.339-.5324.394-.8433l.204.068c-.03.1435-.071.2844-.122.4217-.068.1583-.16.3051-.272.4352-.127.1498-.285.2705-.463.3536-.228.0934-.474.1396-.72.136-.539.0587-1.08-.0923-1.51-.4216-.145-.1567-.258-.341-.33-.542-.072-.2009-.104-.4144-.092-.6277v-4.5834h-1.101z"/><path d="m179.336 67.7179h-2.325v-1.4553c-.094.2005-.198.3957-.313.5849-.119.2004-.271.3796-.449.5304-.182.1622-.389.2953-.612.3944-.265.1015-.546.1523-.83.1496-.318.0117-.636-.0344-.938-.136-.198-.0628-.386-.1545-.558-.272-.076-.054-.149-.1131-.217-.1768-.098-.0825-.176-.1844-.232-.2992-.076-.1519-.135-.3115-.176-.4761-.047-.2374-.069-.4789-.068-.7208v-4.0802h-1.048v-.1768h2.34v4.4202c-.022.2307-.022.4629 0 .6936.024.1929.088.3784.19.5441.091.1587.222.2903.381.3808.183.1004.39.1475.598.136.231-.0072.455-.0727.653-.1904.242-.1332.455-.3136.626-.5304.194-.2521.35-.5317.462-.8297.13-.3433.194-.7076.191-1.0744v-3.3866h-1.102v-.1632h2.339v5.9707h1.102z"/><path d="m184.509 57.354h2.339v10.1597h1.047v.204h-2.312v-1.2512c-.051.1437-.11.2844-.177.4216-.085.1737-.195.3341-.326.476-.166.1634-.36.2968-.571.3945-.261.1167-.545.1726-.83.1632-.414-.0011-.823-.094-1.197-.2721-.371-.1849-.707-.4335-.993-.7344-.286-.3113-.517-.6703-.68-1.0609-.174-.394-.262-.8205-.258-1.2512.003-.8456.329-1.658.911-2.2713.279-.3114.617-.5655.993-.7481.366-.172.765-.2602 1.17-.2584.457-.0243.909.1103 1.278.3808.318.2445.558.5749.694.9521v-5.1547h-1.102zm-2.489 7.0724v1.36c.013.3544.087.7039.217 1.0337.098.2713.279.5047.517.6664.283.1678.61.2482.939.2312.341.018.679-.0725.965-.2584.243-.1718.439-.4007.572-.6664.128-.291.22-.5972.272-.9112.019-.3262.019-.6532 0-.9793 0-.3808 0-.7072 0-.9792 0-.2721 0-.5169-.068-.7209-.035-.1868-.089-.3692-.164-.544-.068-.1523-.15-.298-.244-.4352-.147-.1996-.338-.3625-.558-.4761-.275-.134-.578-.1994-.884-.1904-.286-.0138-.57.0572-.816.204-.225.1371-.401.3418-.503.5849-.132.2841-.219.5869-.259.8976-.026.3942-.021.7898.014 1.1833z"/><path d="m188.895 67.5139h1.115v-5.7667h-1.115v-.1632h2.352v5.9707h1.102v.204h-3.454zm.938-9.3165c0-.202.08-.3957.223-.5385.143-.1429.337-.2231.539-.2231s.395.0802.538.2231c.143.1428.223.3365.223.5385s-.08.3958-.223.5386-.336.2231-.538.2231-.396-.0803-.539-.2231-.223-.3366-.223-.5386z"/><path d="m193.553 64.6443c-.017-.4714.086-.9394.299-1.3601.201-.3952.473-.7501.802-1.0473.313-.2917.677-.5223 1.075-.68.368-.1618.767-.2454 1.169-.2454.403 0 .801.0836 1.17.2454.4.1608.768.391 1.088.68.325.2979.592.6529.789 1.0473.213.4207.316.8887.299 1.3601.003.4378-.095.8705-.286 1.2648-.18.3934-.434.7488-.748 1.0473-.312.2985-.676.5381-1.074.7072-.39.1708-.812.2589-1.238.2589s-.847-.0881-1.237-.2589c-.396-.1726-.76-.4118-1.075-.7072-.313-.2985-.567-.6539-.748-1.0473-.19-.3943-.288-.827-.285-1.2648zm1.428 0c-.015.5442.039 1.0881.163 1.6184.071.3354.215.651.421.9249.147.2067.357.3596.599.4352.481.1268.987.1268 1.469 0 .242-.0756.452-.2285.598-.4352.206-.2739.35-.5895.422-.9249.123-.5303.178-1.0742.163-1.6184.008-.488-.033-.9755-.122-1.4553-.053-.3338-.173-.6532-.354-.9385-.142-.2328-.35-.4176-.598-.5304-.541-.2178-1.146-.2178-1.687 0-.248.1128-.457.2976-.598.5304-.175.2882-.295.6064-.354.9385-.089.4798-.13.9673-.122 1.4553z"/><path d="m207.697 57.395.285.0816-3.876 10.323-.286-.0816z"/><path d="m210.594 67.5142h1.101v-10.0101h-1.101v-.2041h2.339v6.8004h.163l2.856-2.4753h-1.02v-.0408h2.231v.204h-.871l-2.244 1.9313 3.183 3.8354h.585v.204h-3.224v-.204h1.02l-2.543-3.0874h-.163v3.0874h.83v.204h-3.129z"/><path d="m219.023 67.514h1.116v-5.7667h-1.116v-.1632h2.353v5.9707h1.102v.204h-3.455zm.939-9.3165c0-.202.08-.3957.223-.5386.143-.1428.337-.2231.539-.2231.102-.0029.203.0162.297.0561s.178.0997.247.1752c.072.0678.128.1502.166.2416.037.0915.055.19.051.2888.003.1007-.015.201-.052.2946s-.094.1785-.165.2494c-.072.071-.157.1269-.25.1643-.094.0374-.194.0555-.294.0533-.101.0019-.201-.0166-.294-.0542s-.178-.0936-.249-.1647-.127-.1558-.165-.2491c-.038-.0932-.056-.1931-.054-.2936z"/><path d="m224.111 65.6645h.163c.068.2376.155.4695.259.6937.106.2378.248.458.421.6528.186.1988.407.3604.653.476.295.1324.616.1974.939.1904.3-.0009.592-.1013.829-.2856.126-.1138.224-.2554.285-.4136.062-.1583.085-.3287.069-.4976.013-.1403-.005-.2819-.055-.4139-.049-.132-.128-.251-.231-.3478-.195-.1546-.416-.2742-.653-.3536l-1.115-.3944c-.149 0-.299-.1088-.476-.1768-.169-.0737-.326-.1748-.462-.2992-.151-.142-.271-.3132-.354-.5032-.101-.2456-.147-.5101-.136-.7753.001-.2567.052-.5107.15-.748.112-.2214.259-.4235.435-.5985.19-.1762.411-.3146.653-.408.266-.0945.547-.1405.829-.136.172-.0169.345-.0169.517 0l.34.1088.259.0952c.089.0231.182.0231.272 0 .045.0007.091-.0102.131-.0316s.075-.0526.1-.0908h.15v1.6457h-.15c-.067-.2078-.144-.4121-.231-.612-.088-.1859-.193-.3635-.313-.5305-.121-.1505-.274-.2715-.449-.3536-.196-.0908-.41-.1372-.626-.136-.383-.021-.762.0893-1.074.3128-.122.1006-.22.2275-.286.3712s-.098.3004-.095.4585c-.009.1338.016.2677.073.3891.058.1214.145.2262.254.3045.292.2027.62.3502.965.4352l1.047.3537c.407.1297.782.3428 1.102.6256.147.136.263.3028.338.4885.075.1858.108.3859.097.5859-.004.4136-.138.8154-.381 1.1495-.244.334-.586.5836-.979.7138-.306.1251-.635.1853-.965.1769-.195.0223-.391.0223-.585 0l-.49-.1361-.408-.136c-.117-.0181-.236-.0181-.353 0-.071-.026-.148-.026-.218 0-.051.0348-.093.0814-.122.136h-.164z"/><path d="m237.028 67.5548c-.136.1077-.287.1948-.448.2584-.2.075-.413.1119-.626.1088-.179.0194-.361.0028-.533-.0485-.173-.0514-.334-.1366-.474-.2507-.219-.2288-.366-.5175-.421-.8296l-.163.3264c-.075.1448-.177.2741-.3.3808-.166.132-.355.2333-.557.2992-.286.0892-.585.1306-.884.1224-.327.0059-.653-.04-.966-.136-.206-.0759-.396-.1914-.558-.34-.126-.1228-.215-.2782-.258-.4488-.047-.1542-.07-.3148-.068-.476-.017-.2822.054-.5627.204-.8025.131-.1985.308-.3619.517-.476.229-.1241.471-.2243.721-.2992l.802-.2448.775-.272c.18-.0632.346-.1601.49-.2857.113-.1122.193-.2534.231-.408.049-.2278.072-.4606.068-.6936.015-.2038.015-.4083 0-.612-.021-.164-.077-.3216-.163-.4625-.07-.1354-.185-.2415-.326-.2992-.181-.077-.376-.1141-.572-.1088-.274-.0139-.547.0473-.788.1768-.099.0479-.181.1238-.237.2181-.055.0944-.082.203-.076.3123-.014.163-.014.3267 0 .4897.015.1173.015.2362 0 .3536-.004.1286-.057.2507-.15.34-.121.0904-.271.1339-.422.1224-.312 0-.503 0-.584-.1632-.082-.1347-.12-.2916-.109-.4488-.001-.2073.046-.4119.136-.5984.105-.1987.248-.3744.421-.5169.214-.1578.453-.2775.708-.3536.319-.0858.648-.127.979-.1224.374-.0094.747.0458 1.102.1632.27.0939.517.2472.72.4488.177.1738.308.3888.381.6257.083.2407.124.4936.123.748v3.577c-.02.1942.023.3897.122.5576.05.0496.11.0884.175.1141.066.0257.136.0378.206.0355.108.012.218.012.326 0 .117-.0423.227-.1019.327-.1768zm-2.516-3.3594c0 .1225-.177.2449-.476.3809l-1.074.4216c-.284.1023-.53.287-.708.5304-.172.2463-.258.5428-.244.8433-.013.1448-.013.2904 0 .4352.023.1507.078.2946.163.4216.077.1215.185.2202.313.2856.168.0862.355.1284.544.1224.273.0115.543-.0596.775-.204.184-.1291.334-.302.435-.5032.109-.2028.178-.4243.204-.6528.019-.2127.019-.4266 0-.6393z"/><path d="m238.215 67.514h1.101v-5.7667h-1.101v-.1632h2.312v1.3601c.049-.1686.112-.3324.19-.4896.091-.1894.21-.3637.354-.5169.158-.1773.347-.3247.558-.4352.242-.1142.507-.1701.775-.1632.201-.0102.401.0271.585.1088.148.0632.282.1557.394.272.11.1039.19.2355.231.3808.049.1351.072.2781.068.4217.016.115.006.2322-.029.3428s-.095.2119-.175.2964c-.145.1079-.322.1652-.503.1632-.422 0-.639-.136-.639-.408-.009-.0678-.009-.1363 0-.204v-.1632s0-.1088.068-.1768c.009-.095.009-.1907 0-.2857 0-.3128-.177-.4624-.503-.4624-.178.0049-.35.0669-.49.1768-.199.1289-.366.3009-.49.5032-.157.2455-.28.5108-.367.7889-.109.3475-.159.7105-.149 1.0745v3.2913h1.251v.204h-3.441z"/><path d="m251.229 67.5547c-.133.1049-.279.1918-.435.2584-.204.076-.421.1129-.639.1088-.357.0353-.714-.0722-.993-.2992-.224-.2276-.375-.5162-.435-.8296-.038.1139-.088.2233-.15.3264-.08.1449-.186.274-.312.3808-.165.1346-.355.2362-.558.2992-.281.0895-.576.1309-.871.1224-.327.0069-.653-.0391-.965-.136-.208-.0728-.398-.1887-.558-.34-.136-.1112-.239-.2568-.299-.4216-.019-.1581-.019-.3179 0-.476-.021-.2808.045-.5611.19-.8025.136-.199.318-.3624.531-.476.228-.1264.47-.2268.721-.2992l.788-.2448.789-.272c.179-.0664.344-.1631.49-.2856.113-.1123.193-.2535.231-.4081.027-.2304.027-.4631 0-.6936.015-.2037.015-.4083 0-.612-.026-.1628-.081-.3195-.163-.4625-.077-.1298-.19-.234-.326-.2992-.185-.079-.385-.1161-.585-.1088-.27-.0127-.538.0484-.776.1768-.099.0465-.182.122-.238.2167s-.082.2041-.074.3138c-.014.1629-.014.3267 0 .4896.009.1177.009.2359 0 .3536.001.0628-.011.1253-.034.1836-.024.0584-.058.1115-.102.1564-.123.0883-.272.1315-.422.1224-.313 0-.517 0-.585-.1632-.086-.1332-.129-.2901-.122-.4488.003-.2083.054-.4131.149-.5984.101-.2016.245-.3782.422-.5169.214-.1578.453-.2775.707-.3536.315-.086.64-.1272.966-.1224.374-.0116.747.0436 1.102.1632.272.0903.519.2442.72.4488.181.173.317.3879.395.6257.078.2415.114.4943.109.748v3.577c-.017.1958.03.3916.136.5576.046.0506.103.0903.166.1162.064.0259.132.0373.201.0334.113.0121.227.0121.34 0 .114-.0482.223-.1074.326-.1768zm-2.502-3.3593c0 .1224-.177.2448-.476.3808l-1.075.4216c-.281.1058-.526.2898-.707.5304-.172.2463-.258.5429-.245.8433-.012.1448-.012.2904 0 .4352.027.1478.077.2903.15.4216.085.1191.197.2168.326.2856.167.0899.355.1322.544.1224.269.0087.534-.0623.762-.204.194-.1224.349-.2967.449-.5032.102-.2053.171-.4257.204-.6528.012-.213.012-.4264 0-.6393z"/><path d="m253.04 61.584h4.556l-3.576 5.9707h2.026c.237.0058.471-.0505.68-.1632.17-.1066.318-.2451.435-.408.105-.1717.192-.3541.259-.5441 0-.1904.122-.3808.176-.544h.109l-.177 1.8633h-5.005l3.577-5.9707h-1.237-.626c-.168.0123-.331.0635-.476.1496-.172.1011-.313.2468-.408.4216-.158.2605-.294.5334-.408.8161h-.109z"/><path d="m267.034 67.7179h-2.326v-1.4553c-.088.2031-.193.3987-.313.5849-.11.2027-.258.3827-.435.5304-.187.1624-.398.2954-.626.3944-.264.1042-.546.155-.829.1496-.314.0132-.628-.033-.925-.136-.203-.0632-.395-.1548-.571-.272-.077-.054-.15-.1131-.218-.1768-.093-.0836-.167-.1855-.218-.2992-.076-.1519-.135-.3115-.177-.4761-.03-.2393-.03-.4815 0-.7208v-4.0802h-1.115v-.1768h2.353v4.4202c-.014.231-.014.4627 0 .6936.028.194.098.3795.204.5441.09.1549.216.2856.367.3808.183.1004.391.1475.599.136.235-.0048.464-.0704.666-.1904.227-.1442.425-.3286.585-.544.199-.2488.356-.5293.463-.8297.135-.3416.2-.7071.19-1.0744v-3.373h-1.088v-.1632h2.326v5.9707h1.115z"/></g></svg>