<?xml version="1.0" encoding="utf-8"?>
<!-- Generator: Adobe Illustrator 22.0.1, SVG Export Plug-In . SVG Version: 6.00 Build 0)  -->
<svg version="1.1" id="圖層_1" xmlns="http://www.w3.org/2000/svg" xmlns:xlink="http://www.w3.org/1999/xlink" x="0px" y="0px"
	 viewBox="0 0 715 145" style="enable-background:new 0 0 715 145;" xml:space="preserve">
<style type="text/css">
	.st0{fill:#D9D9D9;}
</style>
<g>
	<path class="st0" d="M70.8,140c-1-0.6-1.9-1.4-2.7-2.2c-3-3.2-4.5-7.3-4.5-12.2c0-4.3,1.5-8.2,4.6-11.7c2.9-3.3,10-6.7,21.1-10.1
		c8.1-2.4,15.9-5.1,23.5-8.2v10.1c0,7.9-1.1,14.3-3.3,19.2c-2.2,4.9-5.9,9.1-11.1,12.5c-1.6,1-3.2,1.9-4.8,2.6H166
		c0-0.4,0-0.8,0-1.2v-73c0-7.8-1.4-15.9-4-24.5c-2.7-8.5-6.4-15.2-11-19.8c-6.6-6.7-14.9-11.1-24.8-13.3c-10-2.1-23.1-3.2-39.4-3.2
		C76.6,5.1,67.1,6,58.4,7.8s-15.7,4.3-20.6,7.4c-7,4.5-12.3,9.7-16,15.8C18,37.1,15.2,45.4,13.2,56l52.2,6.3
		c2.1-7.1,4.9-12,8.5-14.6c4.5-3.3,11.2-5,20.1-5c7,0,11.8,1.6,14.6,4.7c2.8,3.1,4.2,8.5,4.2,16.3c-6.8,3.1-13.2,5.6-19.3,7.5
		c-6,1.9-19.4,5.2-39.8,10c-17.1,3.9-28.8,10-35.1,18.1c-6.4,8.1-9.5,18.4-9.5,30.9c0,3.4,0.3,6.6,0.8,9.7h10.6L70.8,140L70.8,140
		L70.8,140z"/>
	<polygon class="st0" points="297.1,140 314.8,77.3 332.9,140 343.6,140 403.8,140 444.6,11.5 392.2,11.5 369.2,115.7 339.1,11.5 
		289.8,11.5 260.8,115.5 238,11.5 185.3,11.5 226.4,140 237.2,140 	"/>
	<path class="st0" d="M613.9,124.9l-55.3,0.5c-3.4,5-6.6,8.5-9.5,10.4c-3.3,2.1-6.6,3.4-10.1,4.1h66.6
		C608.6,135,611.4,129.9,613.9,124.9z"/>
	<path class="st0" d="M528.4,140c-6-1.2-11.2-4.6-15.3-10.2c-3.8-5-6.1-12.6-7.1-22.7h109.4v-7.1c0-21.8-3.1-39.4-9.2-53
		s-15.2-24-26.9-31.1S551.4,5.1,531,5.1c-25.1,0-44.8,8-59.1,24s-21.4,36.8-21.4,62.7c0,18.1,3.6,33.9,10.7,47.3
		c0.2,0.3,0.3,0.6,0.5,1h13.6L528.4,140L528.4,140z M512.4,54.5c5.2-8,12.1-12,20.8-12c7.5,0,13.6,2.7,18.1,7.9
		c4.6,5.3,7.4,14.1,8.5,26.3h-53.8C507,66.9,509.2,59.5,512.4,54.5z"/>
	<polygon class="st0" points="709,140 709,59.7 655.4,59.7 655.4,140 663.5,140 	"/>
	<rect x="655.4" y="5" class="st0" width="53.6" height="37.5"/>
</g>
</svg>
