<svg fill="none" height="156" viewBox="0 0 225 156" width="225" xmlns="http://www.w3.org/2000/svg"><g fill="#fff"><path d="m0 113.533h22.0588c1.306.004 2.5998-.251 3.8069-.749 1.2072-.499 2.3037-1.231 3.2265-2.156.9227-.924 1.6534-2.022 2.15-3.23.4965-1.208.7491-2.503.7431-3.809v-35.5873c0-4.5334 0-5.1228-1.3447-6.9664-1.6166-2.3574-7.3277-3.5059-7.3277-3.5059s5.0161-1.0275 6.9802-3.4303c1.5109-1.8738 1.7828-3.3547 1.6922-6.8455v-36.328c.006-1.30618-.2466-2.60063-.7431-3.80873-.4966-1.2081-1.2273-2.30596-2.15-3.23028-.9228-.92432-2.0193-1.65683-3.2265-2.1553-1.2071-.49847-2.5009-.753045-3.8069-.749043h-22.0588zm9.94158-7.753h-2.17567v-44.6389h16.40819v44.6389zm0-52.3911h-2.17567v-44.63935h16.40819v44.62425zm38.51232 60.1441h31.9853v-31.931h-7.7508v24.178h-16.4686v-104.797753h-7.7659zm69.7421-.529 7.766.529v-97.5299c-.024-4.237-1.717-8.29359-4.713-11.28961-2.995-2.99601-7.051-4.6896864-11.287-4.71349-4.236.0238036-8.292 1.71748-11.2878 4.71349-2.9955 2.99602-4.6889 7.05261-4.7127 11.28961v97.5299h7.7655v-52.8906h16.469zm-16.469-59.0862v-45.16825h16.469v45.16825zm91.288 44.594c.023 4.2342 1.715 8.2882 4.707 11.2842s7.044 4.691 11.278 4.719c4.236-.024 8.292-1.718 11.287-4.714 2.996-2.996 4.689-7.052 4.713-11.2892v-11.0767h-7.766v18.3449h-16.453v-97.03045h16.453v18.33025h7.766v-11.0767c-.024-4.237-1.717-8.29359-4.713-11.28961-2.995-2.99601-7.051-4.6896864-11.287-4.71349-4.234.0277651-8.286 1.72319-11.278 4.71878-2.992 2.99558-4.684 7.04992-4.707 11.28432zm-17.345 15.5952v-112.59585h-7.766l-.091 81.04295h-1.344c-10.048-49.6715-15.381-81.04295-15.381-81.04295h-7.403v112.59585h7.705v-81.3302h1.269l15.985 81.3902z"/><g stroke="#fff" stroke-width=".618132"><path d="m74.9242 123.279h14.3383l-6.8594 13.948h7.2673v3.567h-14.7915l7.3429-13.888h-5.8471z"/><path d="m110.428 123.204 5.319.03-2.025 17.545h-19.1429l-2.3721-17.469 5.3183-.031 1.8131 13.979h2.3266v-6.967h4.85v6.997h2.553z"/><path d="m118.499 123.294h14.217v11.107l-2.296.756 3.656 5.621h-5.243l-2.719-4.216-2.508.756v3.46h-5.137zm5.016 3.642v6.71l4.261-1.511v-5.199z"/><path d="m136.477 123.249h15.019v17.529h-15.109zm10.078 3.687h-5.061v10.276h5.061z"/></g><path d="m45.9648 148.379h.544v6.725h2.5684v.544h-3.1124z"/><path d="m53.2884 148.259c1.2691 0 1.9792 1.148 1.9792 3.747 0 2.6-.7101 3.763-1.9792 3.763-1.2692 0-1.9642-1.148-1.9642-3.763 0-2.614.7101-3.747 1.9642-3.747zm0 6.966c.8914 0 1.4202-.861 1.4202-3.219 0-2.357-.5288-3.203-1.4202-3.203-.8915 0-1.4203.861-1.4203 3.203 0 2.343.5439 3.219 1.4203 3.219z"/><path d="m61.6707 153.185c0 1.662-.7252 2.584-1.8433 2.584-1.118 0-1.9641-1.148-1.9641-3.763 0-2.614.7101-3.747 1.9641-3.747 1.2541 0 1.7829 1.042 1.7829 2.236h-.5591c0-.997-.423-1.692-1.2238-1.692-.8007 0-1.4202.861-1.4202 3.203 0 2.343.5439 3.219 1.4202 3.219s1.2238-.786 1.2843-2.04z"/><path d="m65.4649 148.379h.695l1.8282 7.269h-.5893l-.4986-2.116h-2.1605l-.5137 2.116h-.5893zm1.3144 4.534-.9518-4.095-.9519 4.095z"/><path d="m71.3632 148.923h-1.6015v-.544h3.747v.544h-1.5109v6.725h-.559z"/><path d="m75.8008 148.379h.559v7.269h-.559z"/><path d="m81.0188 148.259c1.2692 0 1.9793 1.148 1.9793 3.747 0 2.6-.7101 3.763-1.9793 3.763-1.2691 0-1.9641-1.148-1.9641-3.763 0-2.614.7101-3.747 1.9641-3.747zm0 6.966c.8914 0 1.4203-.861 1.4203-3.219 0-2.357-.5289-3.203-1.4203-3.203s-1.4202.861-1.4202 3.203c0 2.343.4835 3.219 1.4202 3.219z"/><path d="m85.6406 148.379h.7404l2.372 6.332v-6.332h.5591v7.269h-.7555l-2.357-6.332v6.332h-.559z"/><path d="m98.5405 150.238c0-.891-.3626-1.511-1.1181-1.511-.1649-.001-.3282.033-.479.1-.1508.066-.2857.165-.3957.287-.11.123-.1926.268-.2424.425-.0498.158-.0655.324-.0462.488 0 2.176 3.0217.982 3.0217 3.536 0 1.405-.7403 2.13-1.8584 2.13-1.118 0-1.813-.74-1.813-2.161v-.211h.559v.272c0 .922.423 1.511 1.2238 1.511s1.3447-.468 1.3447-1.511c0-2.161-3.0218-.922-3.0218-3.566-.0327-.242-.0127-.488.0585-.722.0712-.233.1921-.448.3542-.63.1622-.183.3618-.328.5853-.426.2234-.098.4654-.146.7093-.142 1.1483 0 1.6771.68 1.6771 1.98z"/><path d="m102.877 148.923h-1.647v-.544h3.747v.544h-1.556v6.725h-.544z"/><path d="m107.273 148.379h.559v5.214c0 1.103.393 1.632 1.209 1.632s1.209-.529 1.209-1.632v-5.214h.559v5.229c0 1.511-.635 2.161-1.768 2.161s-1.768-.635-1.768-2.161z"/><path d="m113.312 148.379h1.511c1.813 0 2.252 1.255 2.252 3.627 0 2.373-.439 3.642-2.252 3.642h-1.511zm.544 6.725h.967c1.209 0 1.723-.725 1.723-3.022s-.514-3.023-1.723-3.023h-.906z"/><path d="m119.754 148.379h.559v7.269h-.559z"/><path d="m124.964 148.259c1.269 0 1.979 1.148 1.979 3.747 0 2.6-.71 3.763-1.979 3.763s-1.964-1.148-1.964-3.763c0-2.614.71-3.747 1.964-3.747zm0 6.966c.892 0 1.42-.861 1.42-3.219 0-2.357-.528-3.203-1.42-3.203-.891 0-1.42.861-1.42 3.203 0 2.343.544 3.219 1.42 3.219z"/><path d="m135.132 148.379h.544v3.808l2.372-3.808h.59l-1.889 3.023 2.1 4.231h-.589l-1.859-3.687-.74 1.133v2.569h-.544z"/><path d="m141.059 148.379h.544v7.269h-.544z"/><path d="m147.052 150.238c0-.891-.362-1.511-1.118-1.511-.165-.001-.328.033-.479.1-.151.066-.286.165-.396.287-.11.123-.192.268-.242.425-.05.158-.066.324-.046.488 0 2.176 3.022.982 3.022 3.536 0 1.405-.741 2.13-1.874 2.13s-1.798-.74-1.798-2.161v-.211h.559v.272c0 .922.408 1.511 1.224 1.511s1.33-.468 1.33-1.511c0-2.161-3.022-.922-3.022-3.566-.033-.242-.013-.488.058-.722.071-.233.192-.448.354-.63.163-.183.362-.328.586-.426.223-.098.465-.146.709-.142 1.148 0 1.677.68 1.677 1.98z"/><path d="m151.563 148.379h.695l1.858 7.269h-.589l-.514-2.116h-2.191l-.498 2.116h-.59zm1.299 4.534-.937-4.095-.952 4.095z"/><path d="m156.281 148.379h1.844c1.027 0 1.601.68 1.601 1.814 0 .876-.302 1.662-1.118 1.843.771.076 1.027.59 1.058 1.723v.786c-.022.375.068.748.256 1.073h-.649c-.124-.323-.18-.667-.166-1.013v-.619c0-1.285-.227-1.693-1.224-1.693h-1.058v3.355h-.544zm.544 3.4h.952c.199.023.4-.001.588-.071.188-.069.356-.183.492-.33.135-.147.234-.325.288-.518.054-.192.061-.395.022-.592 0-.876-.317-1.42-1.33-1.42h-1.012z"/><path d="m163.672 148.379h.695l1.828 7.269h-.589l-.499-2.116h-2.175l-.499 2.116h-.589zm1.314 4.534-.967-4.095-.951 4.095z"/><path d="m168.1 155.029 3.022-6.045h-2.841v-.544h3.4v.605l-3.022 6.044h3.022v.56h-3.626z"/><path d="m174.043 148.379h.559v5.214c0 1.103.393 1.632 1.209 1.632s1.208-.529 1.208-1.632v-5.214h.559v5.229c0 1.511-.634 2.161-1.767 2.161s-1.768-.635-1.768-2.161z"/></g></svg>