<svg fill="none" height="79" viewBox="0 0 268 79" width="268" xmlns="http://www.w3.org/2000/svg"><g fill="#fff"><path d="m.316197.0134277h36.858003v6.7384723l-27.1508 40.8514h26.3919v8.105h-36.4153v-7.18l26.9821-40.39927h-26.665903z"/><path d="m61.5513 56.6862c-2.8378.0484-5.6581-.4514-8.3055-1.4718-2.3116-.9057-4.3899-2.3175-6.0815-4.1314-1.684-1.8785-2.955-4.088-3.7311-6.4861-.875-2.7164-1.2987-5.5572-1.2543-8.41-.0165-2.5372.3749-5.0607 1.1594-7.4743.7486-2.2843 1.9694-4.3866 3.5836-6.1708 1.6551-1.8353 3.7054-3.273 5.9972-4.205 2.6923-1.1209 5.5887-1.6722 8.5057-1.6189 2.8899-.0764 5.7633.4574 8.4319 1.5663 2.2376.9609 4.2244 2.4211 5.8075 4.2681 1.5436 1.8795 2.6844 4.0548 3.3517 6.3915.7297 2.5711 1.0847 5.2335 1.0539 7.9054.0212 2.595-.3957 5.175-1.2331 7.632-.806 2.3267-2.067 4.4706-3.7101 6.3075-1.6053 1.8346-3.5951 3.2952-5.8285 4.2786-2.4431 1.0724-5.0883 1.6101-7.7574 1.5768zm-.3268-6.4441c1.4585.0267 2.8851-.4279 4.0579-1.2931 1.1796-.9004 2.1413-2.0536 2.8141-3.3745.7724-1.4875 1.3295-3.0766 1.6548-4.7201.3496-1.7693.5261-3.5684.527-5.3718.0274-1.5943-.1139-3.187-.4216-4.7516-.2637-1.4012-.8008-2.7371-1.581-3.9317-.7177-1.1133-1.6985-2.0338-2.8563-2.6807-1.2867-.7178-2.7419-1.0807-4.216-1.0512-1.3962-.0209-2.7712.3429-3.9735 1.0512-1.168.7057-2.1507 1.6787-2.8668 2.8384-.8008 1.3228-1.3877 2.7631-1.7391 4.268-.7336 3.3217-.7587 6.76-.0738 10.092.3236 1.5488.8778 3.0406 1.6442 4.4257.6866 1.2762 1.6432 2.3882 2.8036 3.2589 1.236.8573 2.7107 1.3059 4.216 1.2825"/><path d="m89.1154 23.8978c0-.7674 0-1.7346 0-2.9435-.037-1.2211-.1709-2.4373-.4006-3.6373h8.7165c.0938.2245.1678.4566.2214.6938.0737.2944.1475.6097.2318.9672.0967.3452.1706.6964.2214 1.0512 0 .3574.1054.6938.1581 1.0513.642-.5729 1.3294-1.0932 2.055-1.5559.851-.5416 1.742-1.0161 2.667-1.4192 1.018-.4334 2.077-.7645 3.162-.9881 1.142-.2526 2.308-.376 3.478-.368 1.901-.0214 3.792.2881 5.586.9146 1.622.5946 3.117 1.4898 4.406 2.6386 1.287 1.206 2.313 2.6621 3.014 4.2786.755 1.815 1.132 3.7644 1.107 5.7293v25.3981h-9.275v-23.6636c.023-1.3225-.136-2.642-.475-3.9211-.227-.9617-.699-1.8487-1.37-2.5755-.612-.6469-1.371-1.1373-2.213-1.4297-.982-.308-2.007-.457-3.036-.4416-.705.0085-1.41.0647-2.108.1682-.785.1102-1.563.2682-2.329.4731-.801.2208-1.57.4731-2.35.7464-.7454.2682-1.4709.5879-2.1715.9566v29.6872h-9.2961z"/><path d="m167.636 49.3488c-1.273 1.3939-2.686 2.6548-4.216 3.7634-1.265.8914-2.635 1.6256-4.078 2.1866-1.329.5068-2.712.8595-4.122 1.0512-1.455.1654-2.919.2496-4.384.2523-2.904.0768-5.787-.5055-8.432-1.703-2.232-1.0652-4.19-2.6259-5.723-4.5624-1.514-1.9427-2.628-4.1649-3.278-6.5387-.713-2.4955-1.068-5.0792-1.054-7.6741-.025-2.492.33-4.9734 1.054-7.3587.674-2.2555 1.8-4.3511 3.309-6.1603 1.533-1.8162 3.443-3.2794 5.597-4.2891 2.495-1.1104 5.206-1.6526 7.937-1.5873 2.42-.0509 4.832.3045 7.135 1.0512 1.914.6669 3.659 1.7433 5.112 3.1537 1.385 1.4159 2.436 3.1217 3.078 4.9934.72 2.1152 1.076 4.3366 1.054 6.5703 0 .9146 0 1.8712-.085 2.8594-.073 1.0261-.203 2.0474-.39 3.0591h-24.094c.019 1.2534.225 2.4971.611 3.6899.395 1.3218.981 2.579 1.74 3.7319.759 1.155 1.741 2.1483 2.887 2.9225 1.147.7865 2.509 1.2013 3.9 1.1879 1.139.0164 2.276-.0823 3.394-.2944.928-.181 1.826-.4925 2.667-.9251.865-.4366 1.658-1.004 2.35-1.682.859-.799 1.662-1.656 2.403-2.565zm-17.917-25.6924c-1.276-.0504-2.544.217-3.689.7779-.946.4928-1.75 1.216-2.34 2.1025-.574.8777-.978 1.8546-1.191 2.8804-.245 1.1117-.369 2.2467-.369 3.385h14.756c0-1.0373-.071-2.0734-.211-3.1012-.131-1.0298-.449-2.0272-.938-2.9435-.545-.9315-1.322-1.7066-2.256-2.2496-1.166-.6266-2.482-.9212-3.805-.8515"/><path d="m204.22.0134277h-9.802v55.7054723h9.802z"/><path d="m239.004.0135956c4.453-.1250866 8.888.6139644 13.059 2.1760744 3.329 1.26008 6.325 3.26297 8.759 5.85543 2.25 2.4937 3.93 5.4459 4.922 8.6517 1.03 3.3767 1.545 6.8885 1.528 10.4179-.002 2.5016-.217 4.9985-.643 7.4638-.411 2.3239-1.101 4.5899-2.055 6.749-.93 2.1024-2.158 4.0603-3.647 5.8134-1.547 1.8104-3.385 3.3522-5.439 4.5624-2.309 1.3229-4.792 2.3172-7.378 2.954-3.108.728-6.293 1.081-9.485 1.0512h-13.66v-55.6949044zm-4.216 7.1694844v41.34542h3.004c2.602.0272 5.188-.4181 7.631-1.314 2.296-.8545 4.371-2.2125 6.071-3.9737 1.8-1.9382 3.169-4.2348 4.015-6.7385 1.02-3.0482 1.509-6.2483 1.444-9.4612.006-2.4863-.328-4.9619-.99-7.3587-.614-2.2949-1.69-4.4411-3.162-6.3075-1.532-1.9043-3.493-3.42074-5.723-4.42573-2.711-1.20116-5.658-1.77613-8.622-1.68199z"/><path d="m211.471.0134277h-24.326v8.1156023h24.326z"/><path d="m211.471 47.6035h-24.326v8.1156h24.326z"/><path d="m42.2422 66.3157h1.054v8.0525h2.519v.8515h-3.573z"/><path d="m51.9386 72.0238c0 2.4704-1.1594 3.3009-2.108 3.3009-1.1488 0-2.1079-1.0512-2.1079-3.2799 0-2.2286 1.0539-3.3219 2.1079-3.3219s2.108 1.0723 2.108 3.3009zm-3.162 0c0 1.0513.1898 2.502 1.1067 2.502.917 0 1.054-1.5033 1.054-2.502s-.1792-2.4809-1.054-2.4809-1.1067 1.5032-1.1067 2.4809z"/><path d="m57.5684 75.0619c-.3242.1707-.6875.254-1.0539.2418-1.4124 0-2.3504-1.1248-2.3504-3.2378 0-1.8292.9275-3.3325 2.5295-3.3325.3133-.0014.623.0668.9065.1998l-.2003.8304c-.2275-.1076-.4755-.1649-.7272-.1682-1.054 0-1.4862 1.2195-1.4862 2.4705 0 1.4927.5692 2.3863 1.5072 2.3863.2588-.0009.5142-.0583.7484-.1682z"/><path d="m63.1525 73.7689c-.0148.4848.0099.9699.0737 1.4507h-.9275l-.0632-.6728c-.1202.2342-.3029.4307-.5279.568-.2251.1372-.4837.2099-.7474.21-.2221-.0127-.4393-.0708-.6379-.1707-.1987-.0998-.3747-.2394-.517-.4099-.1423-.1706-.248-.3685-.3104-.5814-.0624-.213-.0803-.4365-.0525-.6567 0-1.5979 1.2753-2.3127 2.7193-2.3232v-.1998c0-.862-.2108-1.4507-1.054-1.4507-.3749.0086-.7399.1215-1.054.3259l-.2213-.7149c.4494-.2775.9681-.4233 1.4967-.4205 1.2858 0 1.8339.8515 1.8339 2.2918zm-1.054-1.8502c-.527 0-1.7602.0946-1.7602 1.4823 0 .8305.4216 1.1353.78 1.1353.3583 0 .8326-.3259.9486-.9671.0152-.1187.0152-.2388 0-.3574z"/><path d="m67.1589 67.3354v1.4928h1.2332v.7779h-1.2332v3.795c0 .8305.3057 1.0513.6746 1.0513.1367.0121.2743.0121.411 0v.7779c-.2454.0766-.5018.1121-.7589.1051-.1928.0188-.3874-.0054-.5697-.0709-.1823-.0654-.3477-.1705-.4843-.3075-.3224-.4747-.461-1.05-.3899-1.6189v-3.732h-.78v-.7779h.78v-1.0512z"/><path d="m71.7127 67.1776c.011.086.0029.1733-.0238.2558-.0268.0825-.0714.1581-.1308.2213-.0594.0633-.1321.1127-.2129.1447-.0807.032-.1676.0458-.2543.0405-.0828-.0024-.1641-.0219-.2389-.0571-.0748-.0353-.1416-.0856-.196-.1478s-.0954-.1349-.1203-.2136-.0333-.1617-.0245-.2438c-.0073-.0835.0028-.1676.0296-.247.0268-.0795.0697-.1525.1261-.2147.0564-.0621.125-.112.2016-.1465.0765-.0345.1594-.0529.2434-.0541.0851-.0022.1695.014.2477.0474s.1482.0833.2052.1462c.0571.0629.0998.1373.1253.2182.0256.0809.0333.1664.0226.2505zm-1.054 8.042v-6.3915h1.054v6.3915z"/><path d="m78.2902 72.0238c0 2.4704-1.1489 3.3009-2.108 3.3009-1.1489 0-2.108-1.0512-2.108-3.2799 0-2.2286 1.054-3.3219 2.108-3.3219s2.108 1.0723 2.108 3.3009zm-3.162 0c0 1.0513.1792 2.502 1.054 2.502s1.054-1.5033 1.054-2.502-.1687-2.4809-1.054-2.4809c-.8854 0-1.054 1.5032-1.054 2.4809z"/><path d="m80.7742 70.4785c0-.7463 0-1.1353 0-1.6504h.8853v.7674c.138-.2676.3484-.4911.6074-.6454.2589-.1542.5561-.2329.8577-.2271.8853 0 1.5493.6622 1.5493 2.2076v4.289h-1.054v-4.1208c0-.7464-.1475-1.5138-.8959-1.5138-.4215 0-.8326.3574-.9591 1.0512-.0177.1888-.0177.3789 0 .5677v4.0263h-1.054z"/><path d="m90.7487 74.0525c.3925.2231.8342.3459 1.2858.3575.2042.0134.4088-.0179.5995-.0917.1908-.0738.363-.1884.5046-.3356.1417-.1473.2492-.3237.3152-.5168.066-.1932.0888-.3984.0669-.6013-.0251-.3825-.1464-.7525-.3527-1.0758-.2063-.3234-.491-.5897-.8278-.7744-.4547-.251-.8435-.6056-1.1347-1.0349s-.4766-.9212-.5411-1.4355c-.0094-.3112.0464-.6209.1637-.9093.1174-.2885.2938-.5494.518-.766.2241-.2167.4911-.3843.7839-.4923.2927-.1079.6048-.1538.9164-.1346.444-.0128.8825.1002 1.2648.3259l-.253.8725c-.313-.2041-.68-.3103-1.054-.3049-.1699-.0073-.3395.0205-.4982.0817-.1586.0611-.3029.1544-.4236.2739-.1208.1194-.2155.2625-.2781.4202-.0627.1578-.0919.3267-.086.4963 0 .883.4638 1.2299 1.3175 1.8396.4589.2667.8395.6488 1.104 1.1081.2645.4594.4035.9798.4032 1.5095.0081.3315-.0532.661-.1799.9676-.1268.3065-.3162.5834-.5562.8129-.24.2294-.5253.4065-.8377.5199-.3124.1133-.6451.1605-.9768.1385-.5088.0108-1.0123-.1048-1.4651-.3364z"/><path d="m98.2203 67.3354v1.4928h1.2332v.7779h-1.2332v3.795c0 .8305.3057 1.0513.6745 1.0513.1368.0121.2744.0121.4111 0v.7779c-.2418.0766-.4947.1121-.7483.1051-.1928.0181-.3872-.0065-.5694-.0719-.1821-.0654-.3476-.1701-.4846-.3065-.2782-.5029-.3643-1.0892-.2424-1.6505v-3.7004h-.8432v-.7779h.8432v-1.0512z"/><path d="m105.529 73.4851v1.7346h-.885v-.6728c-.148.2333-.352.4264-.593.5622-.24.1357-.511.2098-.788.2157-1.128 0-1.56-.8725-1.56-2.4494v-4.0473h1.054v3.9001c0 1.0513.158 1.7451.854 1.7451.228-.0148.443-.1077.61-.2628.167-.1552.276-.3631.307-.5887.04-.19.058-.3841.053-.5782v-4.205h1.054z"/><path d="m112.134 66.0842v7.611 1.5243h-.874l-.064-.7989c-.109.265-.295.4921-.533.6528-.238.1608-.518.2482-.805.2513-1.054 0-1.866-1.1669-1.866-3.2694 0-2.2707.938-3.3325 1.929-3.3325.249-.0026.494.0691.702.2058.209.1366.372.3322.468.5617v-3.4061zm-1.054 5.1721c0-.1261 0-.2733 0-.4205-.063-.6622-.463-1.2404-.948-1.2404-.854 0-1.139 1.1774-1.139 2.4599s.338 2.4284 1.054 2.4284c.317 0 .749-.1682.981-1.0513.011-.1399.011-.2806 0-.4205z"/><path d="m115.991 67.1776c.011.086.004.1736-.021.2566-.025.0831-.068.1599-.126.2252-.057.0653-.128.1176-.207.1534-.079.0359-.165.0544-.252.0544s-.173-.0185-.253-.0544c-.079-.0358-.15-.0881-.207-.1534s-.1-.1421-.125-.2252c-.026-.083-.033-.1706-.021-.2566-.006-.0832.005-.1667.033-.2454.027-.0788.07-.1513.126-.2131s.124-.1117.2-.1467c.076-.0351.158-.0545.241-.0571.086-.002.171.0142.249.0476.079.0333.149.0829.207.1456s.102.1369.129.2178.036.1666.027.2513zm-1.054 8.042v-6.3916h1.054v6.3916z"/><path d="m122.556 72.0238c0 2.4704-1.16 3.3009-2.108 3.3009-1.149 0-2.108-1.0512-2.108-3.2799 0-2.2286 1.054-3.3219 2.108-3.3219s2.108 1.0723 2.108 3.3009zm-3.162 0c0 1.0513.179 2.502 1.054 2.502s1.054-1.5033 1.054-2.502-.179-2.4809-1.054-2.4809-1.054 1.5032-1.054 2.4809z"/><path d="m125.371 75.7555 2.846-9.5453h.769l-2.867 9.5453z"/><path d="m133.192 67.3354v1.4928h1.233v.7779h-1.233v3.795c0 .8305.306 1.0513.675 1.0513.136.0121.274.0121.411 0v.7779c-.246.0766-.502.1121-.759.1051-.184.011-.369-.017-.541-.0822-.173-.0653-.33-.1662-.46-.2962-.323-.4747-.461-1.05-.39-1.6189v-3.732h-.78v-.7779h.78v-1.0512z"/><path d="m136.479 74.1686c.314.2055.679.3184 1.054.3259.125.0111.251-.0052.369-.0476s.226-.11.315-.1981c.089-.088.158-.1944.202-.3117.044-.1174.062-.2428.052-.3677 0-.4836-.168-.8199-.822-1.251-.833-.5466-1.286-1.0512-1.286-1.8186-.007-.2344.034-.4678.12-.6859s.216-.4164.382-.5827.364-.2971.582-.3844c.218-.0874.452-.1294.687-.1236.405.0072.801.1195 1.149.3259l-.285.7779c-.246-.1777-.54-.2767-.843-.2838-.109-.0075-.219.0081-.322.0458-.103.0378-.197.0968-.276.1732-.078.0764-.14.1685-.18.2702-.041.1017-.059.2109-.055.3202 0 .431.158.6728.791 1.0513.377.1858.697.4692.927.8205s.361.7577.38 1.1768c.017.2553-.021.5112-.111.7506-.091.2394-.232.4566-.413.637-.182.1804-.401.3197-.641.4086-.241.0889-.498.1252-.753.1066-.439.0127-.872-.1043-1.244-.3364z"/><path d="m145.652 73.4851c0 .7044 0 1.2615.052 1.7346h-.895l-.064-.6728c-.148.2333-.351.4264-.592.5622-.241.1357-.512.2098-.788.2157-1.128 0-1.56-.8725-1.56-2.4494v-4.0473h1.054v3.9001c0 1.0513.158 1.7451.864 1.7451.228-.0148.443-.1077.611-.2628.167-.1552.275-.3631.306-.5887.04-.19.058-.3841.053-.5782v-4.205h1.054z"/><path d="m148.391 70.4784c0-.5361 0-1.1774 0-1.6504h.906l.053 1.0512c.088-.2984.264-.5637.504-.7622.24-.1984.534-.321.845-.3521h.211v1.0512c-.07-.0113-.141-.0113-.211 0-.332.0378-.64.1934-.866.4386-.226.2451-.357.5634-.367.8965-.012.1961-.012.3927 0 .5887v3.5322h-1.054z"/><path d="m156.855 73.4851c0 .7044 0 1.2615.053 1.7346h-.886l-.074-.6728c-.147.2333-.351.4264-.592.5622-.241.1357-.512.2098-.788.2157-1.128 0-1.56-.8725-1.56-2.4494v-4.0473h1.054v3.9001c0 1.0513.158 1.7451.854 1.7451.227-.0148.443-.1077.61-.2628.167-.1552.275-.3631.307-.5887.022-.1921.022-.3861 0-.5782v-4.205h1.053z"/><path d="m159.607 70.4784c0-.7464 0-1.1354-.053-1.6505h.886l.052.799c.132-.2703.337-.4982.593-.658.255-.1598.55-.245.851-.2461.301-.0091.596.0822.838.2593.243.1771.419.4299.501.7183.155-.2883.375-.5367.643-.7253.263-.1711.571-.259.885-.2523.864 0 1.528.6412 1.528 2.2602v4.2049h-1.054v-3.9947c0-.8305-.116-1.6399-.895-1.6399-.422 0-.802.3574-.949.9566-.012.1926-.012.3856 0 .5782v4.0998h-1.054v-4.2049c0-.7149-.127-1.4508-.885-1.4508-.411 0-.833.3575-.96 1.0513-.011.1855-.011.3716 0 .5571v4.0473h-1.054z"/><path d="m170.244 67.1776c.011.086.003.1733-.024.2558s-.071.1581-.131.2213c-.059.0633-.132.1127-.213.1447-.08.032-.167.0458-.254.0405-.083-.0024-.164-.0219-.239-.0571-.075-.0353-.141-.0856-.196-.1478-.054-.0622-.095-.1349-.12-.2136s-.033-.1617-.025-.2438c-.007-.0835.003-.1676.03-.247.027-.0795.07-.1525.126-.2147.057-.0621.125-.112.202-.1465.076-.0345.159-.0529.243-.0541.085-.0022.17.014.248.0474s.148.0833.205.1462.1.1373.125.2182c.026.0809.034.1664.023.2505zm-1.054 8.042v-6.3915h1.054v6.3915z"/><path d="m176.84 68.8279.853 3.6794c.116.494.179.925.264 1.314.074-.3574.179-.841.284-1.3035l.749-3.6899h1.054l-1.054 4.1104c-.272 1.4679-.823 2.8703-1.623 4.1314-.31.4033-.701.7366-1.149.9776l-.38-.8725c.352-.2044.66-.4759.907-.799.245-.3194.44-.6738.579-1.0512.038-.1151.053-.2367.043-.3574.01-.0803.01-.1616 0-.2418l-1.613-5.908z"/><path d="m186.153 72.0238c0 2.4704-1.159 3.3009-2.108 3.3009-1.159 0-2.107-1.0512-2.107-3.2799 0-2.2286 1.053-3.3219 2.107-3.3219s2.108 1.0723 2.108 3.3009zm-3.162 0c0 1.0513.18 2.502 1.118 2.502s1.054-1.5033 1.054-2.502-.179-2.4809-1.054-2.4809-1.149 1.5032-1.149 2.4809z"/><path d="m189.624 71.8135c.116-.2523.221-.5046.337-.7148l1.276-2.2602h1.054l-1.697 2.7017 1.844 3.6899h-1.138l-1.286-3.0171-.358.5992v2.4073h-1.054v-9.1353h1.054z"/><path d="m198.56 72.0238c0 2.4704-1.149 3.3009-2.108 3.3009-1.149 0-2.108-1.0512-2.108-3.2799 0-2.2286 1.054-3.3219 2.108-3.3219s2.108 1.0723 2.108 3.3009zm-3.162 0c0 1.0513.179 2.502 1.054 2.502s1.054-1.5033 1.054-2.502-.169-2.4809-1.054-2.4809c-.886 0-1.075 1.5032-1.075 2.4809z"/><path d="m201.029 66.0842h1.054v3.4376c.127-.2261.308-.4175.527-.5572.256-.1669.558-.2513.864-.2418.801 0 1.497.6518 1.497 2.2602v4.205h-1.054v-4.0893c0-.778-.179-1.5138-.864-1.5138-.475 0-.833.3469-.991 1.0512-.017.1608-.017.3228 0 .4836v4.1314h-1.054z"/><path d="m211.089 73.7689c-.013.4844.008.9692.063 1.4507h-.928l-.063-.6728c-.119.2349-.301.4321-.527.5695-.225.1374-.484.2095-.748.2084-.222-.0126-.439-.0707-.638-.1706s-.375-.2394-.517-.4099c-.142-.1706-.248-.3685-.31-.5815-.063-.213-.081-.4365-.053-.6566 0-1.5979 1.286-2.3128 2.73-2.3233v-.1997c0-.862-.211-1.4507-1.054-1.4507-.375.0086-.74.1214-1.054.3259l-.221-.7149c.45-.276.968-.4216 1.496-.4205 1.286 0 1.845.8515 1.845 2.2917zm-1.054-1.8502c-.527 0-1.76.0946-1.76 1.4823 0 .8304.421 1.1353.78 1.1353.358 0 .832-.3259.959-.9671.01-.119.01-.2385 0-.3575z"/><path d="m213.861 70.4784c0-.7464 0-1.1354 0-1.6505h.885l.053.799c.132-.2703.337-.4982.592-.658.256-.1598.551-.245.852-.2461.3-.0091.595.0822.838.2593.242.1771.418.4299.501.7183.154-.2883.374-.5367.642-.7253.263-.1723.572-.2603.886-.2523.854 0 1.528.6412 1.528 2.2602v4.2049h-1.001v-3.9947c0-.8305-.116-1.6399-.907-1.6399-.421 0-.79.3574-.938.9566-.011.1926-.011.3856 0 .5782v4.0998h-1.054v-4.2049c0-.7149-.137-1.4508-.885-1.4508-.411 0-.833.3575-.959 1.0513-.012.1855-.012.3716 0 .5571v4.0473h-1.054z"/><path d="m226.797 73.7689c-.012.4844.009.9692.064 1.4507h-.928l-.084-.6728c-.119.2349-.302.4321-.527.5695s-.485.2095-.749.2084c-.222-.0126-.439-.0707-.637-.1706-.199-.0999-.375-.2394-.517-.4099-.143-.1706-.248-.3685-.311-.5815-.062-.213-.08-.4365-.052-.6566 0-1.5979 1.286-2.3128 2.73-2.3233v-.1997c0-.862-.211-1.4507-1.054-1.4507-.375.0086-.74.1214-1.054.3259l-.222-.7149c.45-.276.969-.4216 1.497-.4205 1.286 0 1.844.8515 1.844 2.2917zm-1.054-1.8502c-.527 0-1.76.0946-1.76 1.4823 0 .8304.422 1.1353.78 1.1353.359 0 .833-.3259.959-.9671.01-.119.01-.2385 0-.3575z"/></g></svg>