<svg fill="none" height="83" viewBox="0 0 295 83" width="295" xmlns="http://www.w3.org/2000/svg"><g fill="#fff"><path d="m.0107338 21.5652c0-.3689.2304702-.7121.2475422-1.0639s-.1707188-.7207-.1621829-1.0725c.2068389-1.1532.5359249-2.2808.9816269-3.3635.11097-.4032 0-.858.16219-1.1497.16218-.2917.52069-.5491.85359-.9009.77009-1.1314 1.77108-2.085 2.93636-2.7972 1.36136-.8802 2.89068-1.46466 4.4899-1.71602 1.81864-.2109 3.65004-.29119 5.48004-.24025.7938.00764 1.5852.08806 2.3645.24025 1.0755.19734 1.6559.43759 2.9449.57492 1.7072.1801 2.7059 1.1583 4.0801 1.6474.4439.1544.9049.1372 1.3146.326s.589.4977.9816.7379c.3927.2402 1.0499.4033 1.4682.6607 1.3999.858 1.8694 1.8276 2.8595 3.0374.3754.3616.7288.7456 1.0585 1.1497.6914 1.1923 1.1627 2.5003 1.3913 3.8611.3841 2.3167-.1963 5.4141.6488 7.4734.5702 1.2924 1.4939 2.3954 2.6636 3.1807 1.1696.7853 2.537 1.2206 3.9432 1.2552 2.3217.0858 3.8241-1.5101 5.3093-2.574.2134-.5492.5036-1.0297.7341-1.5616-1.3231-.7036-3.1668-1.0211-4.268-2.2995-.1621-.1974-.239-.5749-.4011-.8152-.1622-.2402-.4781-.3775-.5805-.5834-1.2462-2.6341.3414-6.3923 3.8412-5.0881.9071.5115 1.7353 1.1532 2.4583 1.9048.7786.9959 1.2847 2.179 1.4682 3.4321 1.306-.429 2.245-1.5702 3.8412-1.9734.4596-.142.9552-.1095 1.3926.0913.4374.2009.7862.5561.9804.9984.0542.4642.0827.9311.0853 1.3985.9646 5.0795 3.9948 8.0826 9.4749 8.2027-.2902-1.2098-1.4852-2.2995-1.4682-4.1871 0-.3175.222-.6007.2476-.9782s-.1708-.5062-.1708-.7379c.0665-.7385.2938-1.4532.6658-2.0935.2621-.9067.647-1.7729 1.1439-2.5741.4694-.532 1.2718-.6006 1.3913-1.3986 2.661-1.9441 5.9711-2.769 9.2274-2.2995 2.0742.266 5.6934 1.0983 3.4143 2.8744-2.6717-.1373-3.5253-.8923-5.6166-.6693-.5378.0601-1.1011 0-1.5536.0773-.4524.0772-.7938.4376-1.2206.5748-.4268.1373-.9048.1202-1.2292.2489-1.0766.5311-2.0039 1.3245-2.6973 2.308-1.0313 1.6049-1.4384 3.5353-1.1438 5.4227.2134.961.9048 2.5226 1.801 2.6256 1.1097.1201 2.1596-1.7933 2.5608-2.7886.2305-.6264.3841-2.188 1.1438-2.1365s.9305 2.2395.6573 3.2004c-.367 1.2871-1.7072 2.0936-2.0486 2.9602 1.912 1.0211 5.9751.695 8.2542.2403.8536-.1631 1.5706-.5234 2.373-.7379.7164-.1263 1.4258-.2896 2.1255-.4891.5975-.2403 1.1011-.6778 1.7072-.9095.367-.1287.734-.0944 1.0584-.2403.6658-.3088.9902-1.0725 1.6389-1.4843.2731-.1716.6402-.1631.8536-.3261.7853-.4976 1.0584-1.6131 2.2108-1.8104.3244-1.1326 1.2292-1.6474 2.0401-2.5741.5402-.5643.9561-1.2367 1.2206-1.9734.0206-.4974-.0341-.995-.1622-1.4758-.191-1.6636-.2168-3.3421-.0768-5.0108 0-.4805.3585-.8581.4012-1.3128.0427-.4548-.0854-.6264-.0768-.9867.1601-1.1522.4464-2.2831.8536-3.3721.2263-1.6576.3376-3.32904.3329-5.00221.1024-1.56159.6999-4.3759 1.6303-4.77059.4298-.08546.8692-.11144 1.306-.07722 2.6805 2.16221 3.6275 7.27601 2.4585 11.49742-.214.2285-.4615.4224-.7342.5749 0 .369.5032.1974.4012.6521-.4183.6693-.2476 1.2527-.5719 1.9735-.2049.4547-.9304.7808-1.0585 1.2355-.128.4548.1793.858.0768 1.227-.1536.6092-.9645.6092-1.2206 1.0725.4524 1.3471-.3756 1.7675-.9816 2.4625-.1513 1.5358.0744 3.0855.6572 4.5132 1.5365-.7207 1.9889-2.5741 3.5936-3.2004.632-.7636 1.408-1.3728 2.04-2.1365 1.707-.858 4.097-1.6474 5.122.3261 1.024 1.9734 1.34 4.9593 2.774 6.8641 1.195 1.5445 3.918 2.4282 6.299 1.8877 1.144-.266 1.776-1.0468 3.099-1.6388.854-1.1927 2.774-3.0803 3.517-4.7706.307-.695.281-1.5531.853-1.8019.335-.0917.69-.0864 1.022.0154.332.1017.629.2956.856.5595.419 2.0936.905 4.1185 2.04 5.4999 1.276 1.172 2.743 2.1152 4.337 2.7886.935.4676 1.92.8274 2.936 1.0725 1.434.1973 3.15.3175 3.926-.5749-.725-2.085-1.246-4.5732-.571-6.8127.119-.4204.469-.7722.571-1.1497.04-.5265.123-1.0488.248-1.5616.403-.5819.842-1.1378 1.315-1.6646.267-.5378.567-1.0593.896-1.5616 1.326-1.2585 3.014-2.0634 4.823-2.2994 1.074-.0663 2.15.1052 3.152.5026 1.001.3973 1.904 1.0107 2.644 1.7968.786.8466 1.243 1.9489 1.288 3.1061-.409.4032-.725.9352-1.468.858-1.092-.1716-.614-1.5873-1.229-2.4625-.506-.4931-1.081-.9094-1.707-1.2356-1.707-.858-4.311.2145-5.472 1.3128-1.476 1.595-2.445 3.5967-2.782 5.7487-.076 1.1842.007 2.3732.247 3.5351.342.2831.726-.3261.982.0858-.692 1.716.674 2.9945 1.878 3.6037 2.125 1.0982 6.035 1.4243 8.826.6606 1.46-.3947 2.398-1.4929 3.593-1.716 1.247-1.2098 2.809-2.1451 3.594-3.7753.265-.5491.29-1.1583.572-1.6474.477-.881 1.182-1.6162 2.04-2.1279 3.193-1.5101 7.486-.4976 9.321 1.553.248.2918.641 1.2442 1.059 1.3214.7.1115 1.127-.858 1.553-1.1498.427-.2917.854-.5234 1.392-.858.853-.4891 1.502-1.1755 2.774-.858.3.3447.547.7321.734 1.1497-.333 1.8105-.632 3.1919 0 4.5132.393.8151 1.417 1.6388 2.125 1.2356 1.076-.6264.35-3.3377 1.392-4.1872.573-.3146 1.243-.4033 1.878-.2488.589.2574.631 1.1583.896 1.8877.358.9609 1.221 1.6216 1.553 2.4625 3.312 1.9648 9.023 1.1497 10.781-1.8019-.375-.858-1.451-1.2784-2.04-2.0592-.486-.6349-.913-1.5359-1.391-2.2995-.656-.9933-1.178-2.0694-1.554-3.2004-.111-.3432-.435-.5577-.563-.858s-.128-.9439-.248-1.3986c-.224-.8416-.361-1.7042-.409-2.5741-.069-.8151-.325-1.553-.325-2.2995.041-2.0955.398-4.1728 1.059-6.1605.492-1.48076 1.178-2.8889 2.04-4.18718 1.511-2.26518 2.45-3.65517 4.908-4.92504 1.291-.753676 2.779-1.0976112 4.268-.9867205 1.369.1466895 2.686.6104115 3.848 1.3547705 1.161.74435 2.134 1.74908 2.844 2.93533.193.53744.358 1.08442.495 1.63882.325.92666.939 1.59591.401 2.62554.436 1.11542.163 3.62088-.315 4.93358-.094.2403-.086.5234-.419.5749 0 .266.137.4033.086.7379-.214.4891-.555.858-.734 1.3986-.12.3346.23.6349 0 .8151-.316 1.1412-1.221 1.6731-1.392 2.9602-.425.6578-.807 1.3428-1.144 2.0506-.273.4719-.401.9782-.648 1.3986-.572.9438-1.801 1.5101-1.878 2.7971-.598.3004-.794 1.0125-1.315 1.39-.144.4698-.363.913-.648 1.3128-.342.4462-1.195.7894-1.23 1.2356-.042.6349 2.177 1.3985 2.775 1.5616.597.163 1.246.163 1.801.2402 1.693.2661 3.408.3752 5.121.326 1.409-.0514 2.732-.2059 3.765-.2402.52-4.1013 1.263-8.237 5.795-8.297 1.602-.0433 3.157.5485 4.328 1.6473.406.4605.68 1.0219.796 1.6257.116.6037.068 1.2276-.139 1.8064-.61 1.0204-1.383 1.9335-2.287 2.7028-1.306.9267-2.698 1.2355-4.089 1.8876.384 1.0297 2.04 1.7161 3.107 2.0593 2.156.4734 4.411.089 6.291-1.0725 1.015-.6153 1.815-1.5329 2.288-2.6256.478-1.4157-.478-3.5007.896-4.1871.424-.0816.862-.0208 1.248.173.385.1939.697.51.886.8995 0 1.5616-.188 3.2605.563 4.1871 1.153 1.3986 4.2 1.2527 5.976.4891 1.775-.7636 1.997-2.248 2.782-3.2862.214-1.716.35-5.8689 3.176-4.2901 1.357.7636 1.246 3.0717 1.886 4.6848.688 1.6896 1.881 3.1228 3.414 4.1013 3.654 2.2137 9.117 1.922 11.276-1.9648.094-1.5187.803-2.8573.658-4.3502-1.707.0601-3.415.2488-4.268-1.1498-1.178-2.0163-.811-6.6496 1.878-7.1473 2.56.5749 3.909 2.3081 4.575 4.7621 1.127 0 2.441-.9095 3.756-1.064 1.639-.1973 2.56.103 3.269 1.227.794 1.3042 1.041 3.2776 1.63 4.8478.661 1.6194 1.732 3.0364 3.107 4.1099 1.17.9399 2.462 1.7136 3.842 2.2995 2.065.9095 5.975 2.3338 8.903.9781.822-.3519 1.489-.9922 1.877-1.8018.205-.695-.247-.9781.086-1.716.734-.2489 1.229.3346 1.878.4204 0 .6521.324 1.39.247 1.9649-.286.7893-.765 1.4942-1.391 2.0506-1.46 1.1686-3.256 1.8335-5.122 1.8962-1.36.1008-2.725-.0953-4.003-.5748-.683-.2145-1.485-.3518-2.04-.5749s-.802-.5835-1.229-.7465-.999-.1373-1.392-.326c-.392-.1888-.742-.5663-1.135-.858-2.279-1.4244-4.609-3.1318-5.719-5.5858-.219-.9232-.504-1.8294-.854-2.7113-.222-.798-.264-2.248-.981-2.5741-1.272-.5234-3.526.8581-4.575 1.0726-.165.6147-.22 1.2537-.163 1.8876-.141.6154-.332 1.218-.572 1.8019-.247.9095-.136 1.8704-.495 2.574-.299.4285-.624.8383-.973 1.227-.661 1.068-1.558 1.9692-2.62 2.6341-.948-.2317-1.409.4118-2.04.5749-1.374.2564-2.777.3113-4.166.163-.892-.1178-1.768-.3366-2.612-.6521-2.009-.72-3.77-2.0069-5.07-3.7066-.681-1.0604-1.253-2.1873-1.707-3.3635-.854.4204-.794 1.7761-1.392 2.4625-.939.4033-1.229 1.6045-2.287 2.1451-.377.0999-.759.1801-1.144.2402-.427.1545-.726.5234-1.144.6521-1.173.3043-2.391.3886-3.594.2489-1.476-.1191-2.863-.7571-3.918-1.8019-1.143.2145-1.289 1.4329-2.21 1.9735-.401.1302-.809.239-1.221.326-.902.4739-1.831.8923-2.783 1.2527-1.267.2887-2.586.2622-3.841-.0772-.324-.103-.615-.3947-.973-.4977-.359-.1029-.777 0-1.152-.0772-1.819-.4805-2.561-1.9906-4.081-2.9602-2.56-.3432-5.266.5578-8.254.1631-.316 0-.657-.206-.981-.2403-.453-.06-.931.0772-1.383 0-.308-.06-.581-.3346-.905-.4204-1.071-.1323-2.133-.3213-3.184-.5663-.512-.1973-.854-.7894-1.391-.858-1.178.5062-1.972 1.716-3.184 2.4625-.746.3737-1.548.6229-2.373.7379-.797.2676-1.617.46-2.45.5749-2.772.1336-5.499-.7406-7.682-2.4625-.854.5662-1.451 1.716-2.621 1.8104-.572 0-1.016-.4119-1.63-.5749-.359-.103-.803 0-1.067-.0858-2.092-.6092-2.356-3.5007-2.689-5.6629-.768-.1888-.854.4032-1.229.7379-.564.4719-1.323.7035-1.554 1.2355-.23.532 0 1.9477-.247 2.8744-.581 2.1879-3.517 3.0974-6.291 3.1146-1.09-.0439-2.154-.3531-3.099-.9009-1.313-.8814-2.406-2.056-3.192-3.4321-1.238.5062-2.075 1.6302-3.184 2.2995-.376.2231-.854.2488-1.306.4891-.453.2402-.555.6349-.854.858-1.024.5663-2.475.3089-3.517 1.0725-1.545-.2746-3.149.2832-4.822.163-1.366-.1115-2.51-1.0468-3.756-.858-.675-.3861-1.426-.7551-2.126-1.2355-.512-.3433-.751-.9439-1.22-.9868-.47-.0429-.606.3518-.982.4977-.375.1458-.666.1287-.982.2488-.275.1307-.561.2397-.853.3261-.613-.0162-1.221-.1261-1.801-.3261-.41-.06-.854.0515-1.306 0-1.289-.1373-2.902-1.1068-4.004-1.6474-1.014-.399-1.974-.9236-2.859-1.5616-.753-.6758-1.413-1.449-1.963-2.2995-.453-.7808-.683-2.0077-1.136-2.0506-.452-.0429-1.271 1.6216-1.639 2.1364-.187.266-.392.3089-.648.5749s-.29.5663-.495.7379-.581.2059-.854.4118c-.273.206-.58.695-.896.901-.422.1997-.859.3661-1.306.4976-1.255.5063-3.201 1.2699-5.122.7293-.256-.0686-.503-.326-.853-.4032-.522-.0538-1.041-.1369-1.554-.2489-.75-.3482-1.419-.851-1.963-1.4758-.723-.7635-1.302-1.6532-1.707-2.6255-.103-.2831-.06-.6006-.163-.9095-.102-.3089-.367-.6435-.486-.9781-.487-1.2956-.555-2.9001-1.639-2.9602-.76-.0429-2.484 1.3213-3.107 1.8876-.678.6921-1.305 1.4318-1.8779 2.2137-.5464.6607-1.3231 1.1069-1.6304 1.5616-.5122.7551-.7426 1.9563-1.8011 2.0593-2.2279.1973-1.5108-2.6256-2.4498-3.9469-.9987.2917-1.3231 1.2698-1.9633 1.8876-.367.3604-.9133.5406-1.306.9095-.3926.369-.6572 1.1669-1.306 1.553-.2987.1802-.7426.206-1.0584.4119-.5549.3604-.5207.858-.9816 1.2355-.461.3776-1.2548.5234-1.9633.901-.5791.4121-1.2107.744-1.8779.9867-1.1342.2186-2.2544.5052-3.3546.858-.5516.2874-1.122.5368-1.7072.7465-.6511.0343-1.3036.0343-1.9548 0-.5719 0-1.1352.2745-1.7071.326-1.6969.1431-3.4055.0332-5.0704-.326-1.1438-.2746-2.1766-1.0125-3.5082-.9095-.6914.0515-1.3316.6864-2.1255.6607-.4353 0-.6829-.3518-1.1438-.4977-.5975-.1802-1.3658 0-1.9633-.163-.3706-.1621-.7275-.3544-1.067-.5749-1.2727-.4674-2.4352-1.1949-3.4143-2.1365-.116-.2751-.1991-.5631-.2476-.858-1.1523-.4633-1.3913-1.2956-1.8779-2.7113-.2048-.6006-.606-1.2785-.8536-1.8877-.2475-.6092-.4097-1.6302-.8962-1.716-.7341-.1545-1.545.9181-1.9633 1.3128-.5315.5434-1.1347 1.0111-1.7925 1.39-.2335.7595-.5187 1.502-.8536 2.2222-.5571.6428-1.159 1.245-1.8011 1.8019-.4097.3518-1.0585.6521-1.5536.9867-1.5482 1.0985-3.4161 1.6479-5.3093 1.5616-.8536 0-1.2377-.5234-1.8779-.8151-.8205-.2876-1.6145-.6465-2.373-1.0726-1.0554-.8174-2.0147-1.7529-2.8595-2.7885-.5975.2402-.6914.9953-1.4682 1.0639 0 .3003-.1537.3947-.1622.6607-1.9974 1.7933-5.3691 2.7628-8.5359 3.8611-.3722.1837-.754.347-1.1438.4891-.3002-.0116-.5994-.0403-.8963-.0858-.7341.0429-1.2036.6092-1.8779.7379-.3841.0772-.8536 0-1.3145 0-1.9975.223-3.4144.6692-5.3094.4118-.3756-.0515-.6914-.2917-1.0584-.326-.3671-.0344-.7256.1458-1.06703.0772-.29779-.1385-.58335-.3021-.8536-.4891-.32162-.1682-.65548-.3116-.9987-.429-.24754-.0686-.52069.0686-.73409 0-.4524-.1544-.76824-.6349-1.22918-.6607-.61452-.9743-1.32672-1.8829-2.12544-2.7113-.1124-.7078-.48006-1.3492-1.03285-1.8019-.77677-2.4882-2.074228-5.2939-2.458345-8.2112-.0985619-.6817-.1328579-1.3711-.1024312-2.0593zm199.1092662 7.0701c1.306 1.1069 1.861-.429 2.697-1.4844 1.409-1.7675 2.561-4.0069 4.003-5.4999.38-1.6718 1.335-3.155 2.698-4.1871-.495-1.2613.205-1.8876.486-2.7971.239-.7637.291-1.8791.581-2.7114.128-.3947.461-.7293.486-1.0639-.032-.2897-.086-.5766-.162-.858-.102-.85807 0-1.87911-.162-2.57411-.307-1.00337-.777-1.9486-1.391-2.79714-1.4-1.89623-4.9-3.34628-7.52-1.97345-3.551 1.87048-6.368 7.3876-6.829 11.9093-.649 5.886 2.117 11.4632 5.13 14.0372zm-65.607-23.16651c-1.434.31746-1.05 2.67702.247 2.71134 1.554.0429 1.835-3.16609-.23-2.71134zm-37.6438 15.28131c.9731-1.0124 1.1182-2.248 1.7072-3.698 1.0982-2.8766 1.5443-5.9632 1.306-9.035-.4524-.53197-.4524-1.51011-1.067-1.88764h-.1622c.0026.08657-.0245.17139-.0768.24025-.5463 4.93359-1.7584 9.23229-1.7072 14.38039zm-93.14404 3.2176c.30388 1.7274.74052 3.4285 1.306 5.0881.47705 1.2458 1.04776 2.4534 1.70718 3.6122 1.7584 2.9773 5.97516 4.1014 10.54186 3.209-.3841-1.2613-.4609-3.8611 1.2292-3.535.8536.163.5719 1.3299.9731 2.0506 1.4811.384 3.0507.21 4.4131-.489 2.1031-1.0644 4.011-2.4803 5.6422-4.1872.2732-.3603.5378-.9524.8536-1.4758.4298-.5064.7528-1.0953.9494-1.731s.2628-1.3049.1944-1.967c0-1.124-.4183-2.3253-.4097-3.4321 0-.3604.1707-.7465.1622-1.0725 0-1.5702-1.0841-2.351-1.7926-3.2004-.589-.695-1.2035-1.1927-1.7072-1.8019-1.0467-.2863-2.0213-.7922-2.8595-1.4844-1.4511.1116-2.5096-1.021-3.7643-1.3127-.4439-.103-.9817 0-1.4682-.0773-.4866-.0772-.7512-.4461-1.1438-.4976-1.1389-.0371-2.2789-.0085-3.4144.0858-2.262 0-4.59233-.0429-6.29098.6521-1.1994.4003-2.28952 1.0759-3.18391 1.9734-2.0913 2.1451-2.6376 6.1606-1.93765 9.5927zm44.23314 2.5741c.2646-1.4587-1.195-3.4836-2.0401-3.7839-1.801-.6349-1.3316 1.5616-.734 2.3853.3017.4552.7162.8236 1.2026 1.0689.4865.2452 1.0281.3588 1.5715.3297zm215.4557-3.6981c-1.178 1.0125-.384 4.0413 1.468 2.8744 0-1.2184-.487-2.5398-1.502-2.9173zm-44.037 8.5802c1.727-.232 3.347-.9758 4.652-2.1365.196-.1547.355-.3506.468-.5739.112-.2234.175-.4687.183-.7189.008-.2501-.038-.4991-.136-.7293s-.244-.4362-.43-.6034c-.521-.3829-1.151-.5892-1.797-.5892-.645 0-1.275.2063-1.796.5892-1.247.7379-1.58 3.3634-1.178 4.6762zm-47.477-1.227c-.06-.63-.323-1.223-.75-1.688-.427-.4649-.994-.7762-1.614-.886-1.972-.5149-4.209-.472-4.985.9867-.18 3.6208 5.471 3.0202 7.315 1.5015zm-6.24 3.209c.892.9029 2.09 1.4332 3.355 1.4844 1.477 0 3.978-1.1154 3.184-2.5741h-.086c-.969.5048-2.017.8385-3.098.9868-1.101.0343-2.407-.7551-3.355.1029z"/><path d="m93.5898 73.7319h.4183v6.5124h3.8838v.369h-4.2679z"/><path d="m98.6251 78.1764c-.0024-.3407.0494-.6797.1536-1.0039.0901-.311.2378-.6021.4354-.858.1927-.2358.4345-.4262.7084-.5577.3055-.136.6355-.2063.9685-.2063.334 0 .664.0703.969.2063.274.1315.516.3219.709.5577.197.2559.345.547.435.858.104.3242.156.6632.154 1.0039.002.3379-.05.674-.154.9953-.085.3129-.233.605-.435.858-.193.2385-.434.4318-.709.5663-.305.136-.635.2062-.969.2062-.333 0-.663-.0702-.9685-.2062-.2744-.1345-.5162-.3278-.7084-.5663-.2021-.253-.3503-.5451-.4354-.858-.1041-.3213-.156-.6574-.1536-.9953zm.367 0c-.0014.2909.0418.5803.1281.858.0757.2625.1971.5094.3585.7293.1622.2085.3656.3809.5973.5063.266.1291.559.1909.854.1801.295.0123.588-.0497.853-.1801.232-.1254.436-.2978.598-.5063.161-.2199.283-.4668.358-.7293.173-.5589.173-1.1571 0-1.716-.075-.2625-.197-.5094-.358-.7294-.162-.2084-.366-.3808-.598-.5062-.264-.1334-.557-.1983-.853-.1888-.296-.0081-.589.0567-.854.1888-.2317.1254-.4351.2978-.5973.5062-.1614.22-.2828.4669-.3585.7294-.0745.2795-.1062.5688-.0939.858z"/><path d="m108.418 77.224c-.013-.202-.072-.3984-.17-.5749-.084-.165-.207-.3066-.359-.4118-.152-.1165-.327-.2011-.512-.2489-.202-.0631-.412-.095-.623-.0943-.296-.0082-.589.0567-.854.1887-.231.1229-.432.2958-.589.5063-.164.2133-.288.4545-.367.7121-.089.2771-.132.5669-.128.858.024.3044.087.6044.188.8924.07.2671.192.5178.358.7379.154.2071.356.3723.589.4805.267.1252.56.184.854.1716.216.0032.43-.0346.632-.1116.191-.0736.367-.1811.52-.3174.153-.1377.278-.3038.367-.4891.101-.1928.168-.4019.197-.6178h.358c-.027.2763-.109.5445-.239.7894-.112.2219-.266.4199-.452.5834-.392.317-.88.4896-1.383.4891-.357.009-.711-.0675-1.033-.2231-.276-.1359-.516-.3359-.7-.5834-.187-.2573-.324-.5487-.401-.858-.086-.3247-.129-.6594-.128-.9953-.001-.3344.048-.667.145-.9868.096-.2928.243-.566.435-.8065.195-.2313.437-.4185.709-.5491.305-.1394.638-.2069.973-.1974.254-.0046.507.0272.751.0944.224.0661.435.1706.623.3089.187.1337.339.3102.444.5148.123.2214.196.4676.214.7207z"/><path d="m113.692 79.6695c-.056.1517-.14.2915-.248.4119-.111.1411-.247.2604-.401.3518-.161.1098-.34.1911-.529.2402-.21.0638-.429.0956-.649.0944-.433.0244-.862-.0963-1.22-.3432-.221-.231-.364-.5256-.41-.8425s.008-.6404.154-.925c.109-.1758.258-.3228.435-.429.178-.1108.375-.1892.58-.2317.206-.0421.414-.0736.623-.0944l.564-.0515c.21-.0081.419-.0368.623-.0858.122-.0317.236-.0903.333-.1716.079-.0781.131-.1808.145-.2917.015-.1426.015-.2864 0-.429.001-.1299-.025-.2585-.077-.3775-.059-.1178-.14-.2227-.239-.3089-.129-.0951-.273-.1676-.427-.2145-.206-.0558-.418-.0818-.631-.0773-.384-.0183-.762.1002-1.067.3347-.142.1218-.255.2733-.331.4438-.077.1705-.116.3558-.113.5429h-.367c-.005-.2299.039-.4583.129-.6698s.223-.4015.391-.5572c.396-.2941.884-.437 1.375-.4032.461-.04.923.0812 1.306.3432.13.1155.233.2583.303.4185.069.1601.103.3336.098.5081v2.883.2145c-.009.0655-.009.1318 0 .1973.018.0536.051.101.094.1373.055.0372.121.0552.188.0515h.273v.2574c-.099.0131-.2.0131-.299 0-.12.0065-.239-.014-.35-.0601-.08-.0292-.149-.0833-.196-.1544-.047-.067-.079-.143-.094-.2231-.009-.0942-.009-.189 0-.2831zm0-1.8361c-.109.1171-.253.1954-.41.2231-.2.0399-.402.0686-.606.0858l-.614.06-.538.0772c-.171.0348-.335.0956-.487.1802-.142.0846-.262.2023-.35.3432-.095.1731-.142.3687-.136.5663-.017.161.006.3236.067.4734.061.1497.158.2819.283.3846.28.1859.612.2762.947.2574.344.0198.687-.0575.99-.223.219-.1303.409-.3058.555-.5148.116-.1742.197-.3695.239-.5749.028-.1215.048-.2448.06-.369z"/><path d="m117.747 76.014h-1.076v3.4321c-.009.1603.014.3208.068.4719.036.1099.108.2039.205.266.102.06.216.0979.333.1116.153.0134.308.0134.461 0v.3174h-.546c-.163-.0131-.32-.063-.461-.1458-.141-.0862-.253-.2114-.325-.3604-.085-.2122-.12-.4412-.102-.6693v-3.432h-.913v-.3175h.913v-1.5444h.367v1.5444h1.076z"/><path d="m119.219 74.7616v-1.0297h.367v1.0297zm0 5.886v-4.9508h.367v4.9508z"/><path d="m121.223 78.1764c-.003-.3407.049-.6797.153-1.0039.086-.3129.234-.6049.436-.858.192-.2358.434-.4262.708-.5577.305-.136.635-.2063.969-.2063s.664.0703.969.2063c.272.1338.514.3238.708.5577.195.2575.343.5481.436.858.101.3247.15.6636.145 1.0039.005.3374-.044.6735-.145.9953-.089.3114-.237.6028-.436.858-.194.2366-.435.4295-.708.5663-.305.136-.635.2062-.969.2062s-.664-.0702-.969-.2062c-.274-.1345-.516-.3278-.708-.5663-.206-.2507-.354-.5436-.436-.858-.104-.3213-.156-.6574-.153-.9953zm.367 0c-.002.2909.042.5803.128.858.078.2534.2.4914.358.7036.163.2084.366.3808.598.5062.251.1262.53.1881.811.1802.295.0108.588-.0511.853-.1802.23-.1255.43-.298.589-.5062.164-.2195.289-.4664.367-.7293.173-.559.173-1.1572 0-1.7161-.078-.2629-.203-.5098-.367-.7293-.159-.2082-.359-.3807-.589-.5062-.265-.1321-.558-.1969-.853-.1888-.282-.0053-.56.0596-.811.1888-.232.1254-.435.2977-.598.5062-.161.22-.282.4669-.358.7293-.086.2865-.126.5847-.12.8838z"/><path d="m127.328 75.6966h.367v1.0554c.065-.1764.157-.3414.273-.4891.234-.3016.562-.516.931-.6092.183-.0491.373-.0722.563-.0686.249-.0057.497.029.734.1029.181.0598.349.1529.495.2746.122.1135.223.2469.299.3947.073.1382.127.2853.162.4376.029.1413.046.2848.051.429v.3604 3.0631h-.358v-3.1318c0-.1201 0-.2745 0-.4633-.017-.1866-.072-.3677-.162-.532-.103-.1798-.25-.3303-.427-.4376-.236-.1361-.505-.2016-.777-.1887-.258-.0003-.514.0522-.751.1544-.212.1029-.401.249-.555.429-.159.1944-.278.4191-.35.6607-.083.2781-.124.5675-.119.858v2.677h-.367z"/><path d="m140.173 75.731c-.006-.2681-.07-.5318-.188-.7722-.111-.2129-.265-.4-.453-.5492-.206-.1541-.441-.2649-.691-.326-.278-.0775-.565-.115-.854-.1115-.209.003-.418.026-.623.0686-.213.0425-.418.1208-.606.2317-.19.1123-.35.2681-.469.4547-.126.2154-.188.4625-.179.7122-.01.2386.059.4738.196.6692.143.1783.324.3219.529.4205.242.1101.493.1963.751.2574l.854.1801c.29.0601.58.1287.853.206.264.0783.517.1908.752.3346.234.1405.425.3427.553.5847s.187.5145.172.7881c.013.3192-.067.6352-.23.9095-.151.2382-.348.4427-.581.6006-.237.1556-.5.2661-.777.3261-.279.0692-.565.1038-.853.1029-.382.0026-.763-.0406-1.135-.1287-.329-.0781-.64-.221-.914-.4204-.263-.1999-.476-.4584-.623-.755-.157-.356-.23-.7436-.213-1.1326h.418c-.027.3289.028.6595.162.961.125.2528.31.4709.538.6349.237.1753.507.3008.794.3689.319.07.646.1045.973.103.221.0009.441-.0221.657-.0686.225-.0565.441-.1461.64-.266.196-.1213.363-.2856.487-.4805.142-.2252.21-.489.196-.7551.01-.2494-.059-.4955-.196-.7036-.143-.1881-.327-.3408-.538-.4461-.236-.1172-.486-.2065-.742-.266l-.854-.1888c-.282-.06-.572-.1287-.854-.2059-.26-.0684-.51-.1723-.742-.3089-.216-.1254-.398-.3022-.53-.5148-.145-.2397-.216-.5174-.204-.798-.012-.3006.062-.5982.213-.858.132-.2259.313-.4193.529-.5663.228-.147.479-.2544.743-.3174.279-.0704.566-.105.853-.103.337-.0012.672.0391.999.1201.305.0723.595.2003.854.3776.233.1743.423.4004.555.6606.152.3007.233.6323.239.9696z"/><path d="m142.832 76.8377c.046-.1443.109-.2826.188-.4118.096-.1541.217-.2905.358-.4033.158-.1341.337-.2414.53-.3174.229-.0871.472-.1279.717-.1202.325-.0212.651.038.949.1727.297.1346.558.3404.758.5995.188.2568.325.5483.401.8581.094.3232.14.6586.137.9953.004.3509-.042.7006-.137 1.0382-.077.298-.217.5759-.41.8151-.185.2295-.422.4118-.691.532-.309.137-.644.2043-.982.1973-.381.006-.758-.0886-1.092-.2746-.331-.1896-.58-.4951-.7-.858v2.8057h-.35v-6.7697h.35zm1.818 3.6037c.295.0126.589-.0493.854-.1802.229-.1144.428-.282.58-.489.158-.2153.272-.4605.333-.7208.079-.2792.119-.5679.12-.858 0-.2896-.038-.578-.111-.858-.064-.2633-.174-.5131-.325-.7379-.152-.2128-.346-.3911-.571-.5234-.264-.1364-.558-.2042-.854-.1973-.297-.01-.591.058-.854.1973-.223.1243-.415.2973-.563.5062-.148.2209-.253.4685-.307.7293-.067.2811-.098.5693-.094.8581-.001.2878.024.575.077.858.053.2569.155.5014.298.7207.142.2111.333.3847.555.5063.269.129.564.1936.862.1887z"/><path d="m151.713 79.6695c-.063.1483-.147.2869-.248.4118-.113.1393-.249.2582-.401.3518-.162.109-.341.1902-.529.2403-.214.0631-.435.0949-.658.0943-.43.0251-.857-.0957-1.212-.3432-.149-.1295-.267-.2924-.342-.4757-.076-.1832-.108-.3818-.093-.5796-.009-.2486.05-.4949.171-.7122.111-.1738.26-.3203.435-.429.172-.0995.36-.1691.555-.2059.206-.0434.414-.0749.623-.0944l.563-.0515c.208-.008.413-.0367.615-.0858.125-.0305.242-.0892.341-.1716.08-.0781.131-.1808.145-.2917.011-.1428.011-.2862 0-.429.001-.1299-.025-.2585-.076-.3776-.055-.1201-.137-.2258-.239-.3088-.127-.0935-.269-.1659-.419-.2146-.205-.0557-.418-.0817-.631-.0772-.387-.0181-.767.1003-1.076.3347-.139.1232-.251.275-.328.4452-.076.1701-.116.3547-.116.5415h-.358c-.007-.2302.037-.459.127-.6708.089-.2118.224-.4015.394-.5562.394-.2962.882-.4393 1.374-.4033.459-.0393.917.0819 1.297.3432.133.114.239.2563.31.4167.071.1603.105.3346.1.51v3.0889c-.005.0657-.005.1316 0 .1973.018.0536.051.1011.094.1373.058.0373.127.0553.196.0515h.265v.2402c-.096.0131-.194.0131-.29 0-.12.0071-.24-.0134-.35-.06-.08-.0292-.149-.0833-.197-.1545-.049-.065-.082-.1419-.094-.2231-.009-.0941-.009-.1889 0-.2831zm0-1.8362c-.107.1204-.252.1993-.41.2231-.2.04-.403.0686-.606.0858l-.615.0601-.537.0772c-.168.0337-.33.0946-.479.1802-.144.0819-.264.2002-.349.3432-.099.1716-.147.3682-.137.5663-.019.1603.003.3227.062.4725.06.1498.156.2823.279.3855.283.1871.618.2774.956.2574.342.02.682-.0574.982-.2231.221-.1278.41-.3037.555-.5148.118-.1739.202-.3691.247-.5749.027-.1214.044-.2448.052-.3689z"/><path d="m157.659 77.2238c-.011-.2013-.066-.3976-.162-.5748-.089-.1616-.211-.302-.358-.4119-.153-.1165-.327-.2011-.513-.2488-.204-.0625-.417-.0943-.631-.0944-.296-.0126-.59.0525-.854.1888-.234.1225-.438.2953-.597.5062-.164.2134-.289.4546-.367.7122-.082.2785-.122.5676-.12.858-.004.3125.033.6241.111.9266.07.2671.192.5178.359.7379.158.2026.359.3668.588.4805.267.1246.56.1834.854.1716.219.0044.436-.0335.64-.1115.19-.0717.364-.1795.512-.3175.156-.1373.283-.3033.376-.489.094-.1949.158-.4033.188-.6178h.367c-.036.2746-.116.5414-.239.7894-.113.2241-.269.4226-.461.5834-.39.3208-.879.4938-1.383.4891-.357.008-.711-.0685-1.033-.2231-.273-.1362-.51-.3363-.691-.5835-.194-.2546-.333-.5467-.41-.858-.086-.3246-.129-.6593-.128-.9953-.001-.3343.048-.6669.145-.9867.096-.2945.247-.5682.444-.8065.193-.2333.435-.4208.709-.5492.302-.1392.632-.2067.964-.1973.254-.0051.507.0266.751.0944.225.0625.437.1673.623.3089.189.1313.342.3084.444.5148.123.2214.196.4675.214.7207z"/><path d="m159.789 78.2193v.0601c-.007.29.031.5793.111.858.072.2502.188.4855.341.695.15.202.346.3641.572.4719.244.1218.514.1808.786.1716.427.0241.847-.1137 1.178-.3861.303-.291.512-.6681.597-1.0811h.359c-.071.5121-.319.9828-.7 1.3299-.407.3238-.916.4885-1.434.4633-.33.0064-.656-.061-.956-.1973-.261-.1289-.492-.3134-.675-.5406-.197-.2534-.34-.5457-.418-.858-.088-.3272-.131-.6649-.128-1.0039-.003-.3366.043-.6719.137-.9953.083-.3104.225-.6017.418-.858.186-.2431.426-.4398.7-.5748.304-.152.642-.2257.981-.2146.315-.0072.627.0573.914.1888.258.1221.485.301.666.5234.182.2298.321.4916.409.7722.09.3037.136.6186.137.9353.004.037.004.0744 0 .1115v.103zm3.619-.3175c-.014-.2592-.06-.5156-.136-.7636-.071-.2324-.187-.4483-.342-.6349-.145-.1868-.332-.3367-.546-.4376-.227-.1159-.479-.1748-.734-.1716-.255-.0043-.508.049-.74.156-.232.1069-.437.2647-.6.4617-.162.1877-.284.4067-.359.6436-.085.2404-.137.4917-.153.7464z"/><path d="m168.219 73.7319h.418v3.1232h4.37v-3.1232h.427v6.8642h-.427v-3.4321h-4.37v3.4321h-.418z"/><path d="m178.556 79.6693c-.131.3162-.358.5832-.648.7636-.162.1091-.341.1902-.529.2403-.211.0632-.43.095-.649.0944-.434.0244-.863-.0963-1.221-.3432-.148-.1299-.264-.2932-.339-.4765-.074-.1834-.104-.3817-.088-.5789-.013-.249.047-.4964.171-.7122.107-.1774.257-.325.435-.429.178-.1135.375-.1921.581-.2316.206-.0422.414-.0737.623-.0944l.563-.0515c.208-.0073.414-.0361.615-.0858.125-.0306.242-.0892.341-.1716.08-.0781.131-.1809.145-.2917.011-.1428.011-.2862 0-.429.001-.1299-.025-.2585-.076-.3776-.053-.1213-.135-.2274-.239-.3088-.126-.0953-.268-.1679-.419-.2146-.205-.0557-.418-.0817-.631-.0772-.384-.0198-.763.0989-1.067.3347-.141.1224-.255.2739-.333.4441s-.119.3552-.12.5426h-.358c-.005-.23.039-.4583.129-.6698.09-.2116.223-.4015.392-.5572.395-.2948.883-.4378 1.374-.4033.459-.0415.918.0799 1.297.3432.133.114.239.2563.31.4167.071.1603.105.3346.1.51v3.0889c-.005.0657-.005.1316 0 .1973.024.0525.059.0993.102.1373.056.0372.122.0552.188.0515h.273v.266c-.099.0126-.199.0126-.298 0-.12.0065-.24-.014-.35-.0601-.08-.0292-.149-.0833-.197-.1544-.046-.067-.078-.143-.094-.2231-.009-.0942-.009-.189 0-.2832zm0-1.8362c-.104.1187-.245.1975-.401.2231-.203.0393-.408.068-.614.0858l-.615.0601c-.177.0167-.354.0425-.529.0772-.17.0348-.335.0956-.487.1802-.144.082-.265.2003-.35.3432-.098.1716-.146.3683-.136.5663-.017.1601.006.3218.065.4713.06.1494.155.2821.276.3867.284.1849.619.275.956.2574.342.02.682-.0573.982-.2231.2-.1173.375-.2744.513-.4618.138-.1873.236-.401.289-.6278.027-.1215.044-.2448.051-.369z"/><path d="m180.801 75.6966h.367v1.0554c.062-.1779.154-.3435.273-.4891.117-.1454.255-.2726.41-.3775.158-.1015.331-.1796.512-.2317.184-.0482.373-.0713.563-.0686.252-.0056.502.0291.743.1029.17.0535.327.1401.463.255.136.1148.249.2556.331.4143.07.1385.121.2856.153.4376.032.141.052.2845.06.429v.3603 3.0632h-.367v-3.1318c0-.1201 0-.2746 0-.4633-.021-.1858-.076-.3662-.162-.532-.103-.1798-.25-.3304-.427-.4376-.239-.1359-.511-.2013-.785-.1888-.256-.0013-.509.0513-.743.1545-.212.1029-.401.249-.555.429-.159.1944-.278.4191-.35.6607-.087.2771-.128.5673-.119.858v2.677h-.367z"/><path d="m186.633 78.2192v.06c-.007.2901.03.5794.111.8581.072.2501.187.4855.341.695.149.202.346.364.572.4719.247.1205.519.1794.794.1716.424.0219.841-.1157 1.169-.3861.307-.289.516-.667.598-1.0811h.367c-.078.5118-.328.9814-.709 1.3299-.405.3252-.915.49-1.434.4633-.326.0071-.65-.0604-.947-.1973-.265-.1264-.499-.3112-.683-.5406-.199-.2517-.339-.5449-.41-.858-.091-.3268-.136-.6646-.136-1.0039 0-.3371.049-.6723.145-.9953.08-.3099.219-.6013.409-.858.187-.2431.426-.4398.7-.5749.299-.1329.622-.2015.948-.2015s.649.0686.947.2015c.259.1221.486.301.666.5234.183.2298.322.4916.41.7722.094.3027.14.6183.136.9353.004.037.004.0744 0 .1115v.103zm3.619-.3175c-.007-.2593-.05-.5163-.128-.7636-.074-.2311-.19-.4463-.342-.635-.147-.1848-.334-.3343-.546-.4376-.23-.1159-.485-.1748-.743-.1716-.268-.005-.534.0538-.776.1716-.216.1095-.407.2612-.564.4462-.159.1897-.28.4081-.358.6435-.086.2405-.137.4917-.154.7465z"/><path d="m195.996 79.5922c-.177.349-.442.645-.769.858-.338.2077-.73.312-1.126.3003-.331.005-.659-.0685-.956-.2145-.258-.1384-.482-.3317-.658-.5663-.186-.2559-.317-.5482-.384-.858-.085-.3189-.128-.6478-.128-.9781-.012-.326.019-.6522.094-.9696.076-.3113.216-.6035.41-.858.183-.2325.417-.4203.683-.5491.302-.1402.632-.2077.964-.1974.395-.005.782.102 1.119.3089.161.1054.305.2357.426.3861.121.1588.216.3354.282.5234v-3.046h.384v6.8642h-.367zm-1.827.858c.279.0088.556-.0563.802-.1887.225-.1261.42-.2986.572-.5063.15-.2232.263-.4696.333-.7293.078-.2792.115-.5681.111-.858.003-.2898-.034-.5786-.111-.858-.072-.2591-.184-.5052-.333-.7293-.145-.2163-.342-.3931-.572-.5149-.262-.1392-.556-.2073-.853-.1973-.296-.0071-.589.0577-.854.1888-.222.1261-.414.2988-.563.5062-.157.221-.268.4722-.324.7379-.07.2807-.104.5689-.103.858-.003.2898.034.5786.111.858.063.2624.176.51.333.7294.153.2076.348.3802.572.5062.272.138.575.2031.879.1887z"/><path d="m201.513 79.6695c-.056.1517-.14.2915-.248.4119-.11.1389-.243.2579-.393.3518-.165.109-.346.1902-.537.2402-.211.0638-.429.0956-.649.0944-.433.0231-.862-.0975-1.221-.3432-.147-.1312-.262-.2946-.336-.4776-.074-.1831-.105-.3807-.09-.5778-.009-.2486.05-.4948.17-.7121.107-.1775.257-.3251.436-.429.18-.1135.38-.192.589-.2317.203-.0427.408-.0743.614-.0944l.563-.0515c.21-.008.419-.0368.624-.0858.123-.0342.239-.0925.341-.1716.074-.0813.121-.1829.137-.2917.015-.1426.015-.2864 0-.429.001-.1299-.026-.2585-.077-.3775-.059-.1178-.14-.2227-.239-.3089-.129-.0951-.274-.1676-.427-.2145-.206-.0558-.419-.0818-.632-.0773-.383-.0183-.761.1002-1.067.3347-.141.1218-.254.2733-.331.4438-.076.1705-.115.3558-.113.5429h-.367c-.002-.2296.043-.4573.132-.6685.09-.2113.222-.4014.389-.5585.396-.2941.883-.437 1.374-.4032.462-.04.923.0812 1.306.3432.131.1155.234.2583.303.4185.07.1601.103.3336.099.5081v2.883c-.005.0714-.005.143 0 .2145-.013.0651-.013.1322 0 .1973.018.0536.05.1011.093.1373.056.0372.122.0552.188.0515h.273v.2574c-.099.0131-.199.0131-.298 0-.12.0065-.24-.014-.35-.0601-.08-.0292-.149-.0833-.197-.1544-.046-.0669-.078-.143-.094-.2231-.004-.0943-.004-.1888 0-.2831zm0-1.8361c-.109.1171-.253.1954-.41.2231-.2.0399-.403.0686-.606.0858l-.615.06-.538.0772c-.17.0349-.334.0956-.486.1802-.144.082-.265.2003-.35.3432-.095.1732-.142.3687-.137.5663-.016.161.007.3236.068.4734.061.1497.158.2819.282.3846.28.1859.613.2762.948.2575.344.0197.687-.0576.99-.2231.219-.1303.408-.3058.555-.5148.116-.1742.197-.3695.239-.5749.028-.1215.048-.2448.06-.369z"/><path d="m160.489 53.3367c-1.008-.5492-2.22-1.0983-3.321-1.7847-.922-.5749-2.706-1.3042-2.817-2.2738.107-.8437.535-1.6129 1.195-2.145 1.746-.9976 3.809-1.2745 5.753-.7722.325.0944.658.3174.991.4462 1.348.4976 2.68 1.0639 2.876 2.4968.043.3175-.171.7722.171 1.1154.252-.3755.367-.8274.324-1.2784-.213-2.085-3.192-3.4922-5.633-3.6724-2.109-.1458-4.166.3947-5.31 1.5531-.461.4459-.804 1.0003-.998 1.613-.359 1.8019 1.57 2.5741 2.654 3.2262.598.3604 1.212.7293 1.827 1.0554.615.326 1.314.5491 1.938.858.623.3089 1.323.6092 1.929.9438.392.2145.759.5577 1.161.7808.767.3464 1.449.8592 1.997 1.5015 1.886 3.3635-1.05 6.1435-4.592 5.4999-1.708-.3174-4.106-1.3299-4.482-2.4453-.094-.4585-.094-.9315 0-1.39.103-.2917.675-.103.777-.3861-.094-.3003-.734-.1545-.999-.1116-1.553 1.7161.7 3.6638 2.109 4.2215 1.278.5258 2.648.7912 4.029.7808.809-.01 1.603-.2243 2.308-.6231.706-.3988 1.3-.9693 1.729-1.6592.414-1.0261.474-2.1618.171-3.2262-.811-2.0592-3.432-3.0717-5.787-4.3244z"/><path d="m132.316 51.7235c.02-.2073.003-.4166-.051-.6177-.384-.0515-.589-.2918-1.05-.2746.135.4174.363.7987.666 1.1154.179-.0429.264-.1716.435-.2231z"/><path d="m214.708 56.7774c-.581 1.1317-1.469 2.0748-2.561 2.7199-1.127.695-2.689 1.2613-3.978.5577-1.288-.7035-1.835-3.0803-3.26-3.432-1.426-.3518-2.296 1.0296-3.159 1.45-.29-1.6216-2.492-1.716-3.866-1.0554-.427-.3088-1.588-1.2355-2.271-1.0553s-.333 1.8705.171 2.1622c.853.4976 1.22-.4204 2.1-.3861 1.553 1.0897-.965 2.3853-1.989 1.3299-.248-.2488-.171-.4547-.384-.7722-.555-.163-.649.5148-.854.858-.486.7465-.922 1.227-1.707.6092s-1.204-2.1021-1.605-3.1661c-1.425-.3003-2.262.858-2.765 1.8877-.291-.8581-.487-2.1794-1.383-2.1623-.897.0172-1.639 1.167-2.151 1.8362-.231-.5577-.589-1.8447-1.11-1.8362-.601.5226-1.155 1.0968-1.656 1.7161-.065.1424-.122.2885-.171.4376-.324.377-.674.7298-1.05 1.0553-.114.139-.27.2381-.443.2832-.632.0686-1.494-1.4329-1.494-1.7761s.589-1.1154.853-1.7161c.271-.5992.51-1.2121.717-1.8361.293-1.0238.325-2.1052.092-3.1444-.233-1.0393-.722-2.0028-1.423-2.8017-1.247-1.3213-1.998.3175-2.1 1.6131-.156 2.6982.218 5.4009 1.101 7.9538-.623.9095-2.219 2.3167-3.696 2.2738-1.178 0-1.613-1.2012-2.219-1.9992-1.093-.3518-2.39-.7207-3.415-.1115-.496.3314-.894.7907-1.152 1.3299-.359 1.1583 1.093 1.716 2.1 1.5015s1.707-1.3042 2.424-1.4415c.726.8581 1.297 1.5016 2.492 1.39 1.07-.2492 2.059-.7656 2.877-1.5015.213-.1973.623-.858.854-.858.23 0 .486.858.665 1.0553.253.2596.54.482.854.6607.913.2488 1.545-.5663 1.878-.9953.527-.8874 1.157-1.7083 1.878-2.4453.48.8942.771 1.8787.853 2.8915.786.2574.615-.6778.726-1.1154.12-.4424.286-.8709.495-1.2785.154-.2317.768-.858 1.272-.6607.307.0944.521.9524.657 1.5531.137.6006.128 1.716.777 1.553.563-1.1155.555-2.8143 2.16-2.8916.315 1.3128 1.16 3.2434 2.56 3.6209 1.025.2746 1.221-.858 1.767-1.3385.315.2783.684.4865 1.084.6107s.822.1617 1.238.11c.288-.0508.557-.1779.779-.3682s.39-.4369.486-.7143.116-.5754.059-.8633c-.058-.2879-.19-.5551-.385-.7741.854-.2832 2.347-.4204 2.655.4976.205.6007-.282 1.0211-.222 1.6646.853.3947 1.033-.6864 1.434-1.1068.408-.4583.897-.8365 1.442-1.1155.349-.1627.746-.1896 1.113-.0754.367.1141.68.3611.876.6932.359.4548.606 1.1583 1.059 1.6646.411.5194.901.971 1.451 1.3385 1.528.6263 2.817 0 4.268-.7208 1.28-1.1154 2.561-2.2394 3.098-4.1099-.486.1116-.486.5921-.896.7465zm-18.779-.163c.538.1544 1.169.2316 1.383.7207-.572.5148-1.75.2231-1.349-.7207zm-27.477 3.5007c.143-.3066.346-.581.596-.8069.251-.2258.545-.3984.864-.5074.319-.1089.656-.152.992-.1267s.663.1185.962.2741c-.23 1.2355-2.27 2.2909-3.38 1.1669zm9.338-9.6699c0-.7722.162-1.3213.666-1.6131 1.246.5577 2.1 2.6942 1.878 4.4446-.238 1.4604-.732 2.8666-1.46 4.1528-.802-1.5444-1.092-4.7534-1.05-6.9843z"/><path d="m146.974 58.6135c0 .4633.598.326.717.6692-1.647 1.39-5.924 2.0335-8.237.7722.91-.371 1.77-.8553 2.561-1.4414 1.297-1.1155-.615-2.1279-1.929-2.0593-.407-.0159-.811.0784-1.169.2731-.358.1946-.657.4824-.867.8333-.209.3508-.321.7518-.323 1.161s.105.8114.31 1.1647c-1.562.6092-3.09.6778-4.148-.2746-.478-.4376-.854-1.3642-1.383-1.5015-.854-.2317-1.562.6092-1.827 1.3299-.376-.4461-.58-1.3556-1.212-1.3814-.316 0-.905.4633-1.161.7722-.393.4805-.478 1.1669-.777 1.5616-.339.0162-.673-.0861-.945-.2894-.272-.2034-.466-.4952-.548-.826-.103-.4977.196-1.1412-.274-1.4415-.554.103-.281.5063-.444.858-.315.7551-1.997 2.2652-2.816 1.5016-.82-.7637-.956-2.0764-1.161-3.5007-.127-.5451-.165-1.1074-.111-1.6646.085-.4118.546-.7379.853-1.1154.999-1.3214 2.305-3.9383 1.05-5.723-.145-.2059-.811-.9267-1.272-.858-.309.1024-.58.2969-.776.5577-.135.3773-.227.7688-.273 1.1669-.103.4118-.265.7722-.333 1.1154-.239 1.5639-.239 3.1553 0 4.7191-.97.9556-2.064 1.7753-3.253 2.4368-.58.4016-1.211.722-1.877.9524-.453.103-2.758-.6693-2.604.4977.051.3861.657.6349 1.11.6606.683.0515 1.195-.4204 1.767-.3861.288.0354.564.1395.805.3036.24.1642.438.3837.578.6402-.479.798-2.186.6178-2.928.2231-.248-.1287-.47-.5148-.717-.5577-.424.0725-.835.2054-1.221.3947-.401.163-.854.369-1.161.4977s-.606.4804-.939.4461c-1.016-.1029-.973-1.8876-1.383-2.574-.649-.1744-1.331-.1921-1.989-.0515-.243-.4142-.592-.7557-1.011-.9894-.418-.2337-.891-.3513-1.37-.3405-.089.2889-.095.597-.019.8895.077.2924.233.5576.451.7655.219.2079.491.3503.785.4111.295.0608.601.0376.883-.067.04.3332.002.6712-.11.9873-.112.316-.296.6015-.537.8337-.241.2323-.532.405-.851.5044s-.657.1229-.986.0685c-.479-.166-.901-.4632-1.221-.858v-.4977c-.33-.473-.615-.9756-.853-1.5015-.359-.0686-.239.3432-.555.3346-.657-.266-1.5025-.858-2.4329-.858-.4214.0031-.8285.154-1.1511.4265-.3225.2726-.5404.6498-.6159 1.0665-.0512 1.1583.9475 1.5444 1.4938 2.2308-2.3724.5109-4.7956.7441-7.2214.695-2.3218 0-5.0618-.5577-6.5214-1.9391-.7599-.7854-1.3601-1.7122-1.767-2.7285-.6134-1.0452-.9731-2.221-1.0499-3.4321 0-2.2823 1.7584-3.2433 3.1498-4.2215 1.1165-.9366 2.444-1.5846 3.8667-1.8876.7512-.163 1.5792-.4547 2.3218-.5577 2.0998-.2746 5.463-.2403 4.9252 2.3338.7341-.0944.7085-1.227.4439-1.7761-.4865-.9867-2.74-1.45-4.268-1.3385-.9899.0733-1.9704.2428-2.9278.5062-.5975.1373-1.2548.1716-1.7754.3347-1.28.5147-2.4722 1.2268-3.5339 2.1107-1.0378.5935-1.8985 1.4557-2.4925 2.4968-.0598.6693-.3841.9267-.4439 1.5016-.0381 1.2332.2288 2.4567.7768 3.5607.3922.9904.9116 1.925 1.545 2.78.7447.8473 1.655 1.5313 2.6742 2.0096 1.0192.4782 2.1254.7405 3.2497.7704h1.2121c1.4236.0535 2.8491.0162 4.268-.1115 2.4626-.1264 4.8647-.8129 7.0251-2.0078.64.4204 1.084 1.0725 1.929 1.1755.412.0284.826-.0361 1.21-.189.385-.1528.73-.39 1.012-.6943.281-.3043.491-.6679.615-1.0644.124-.3964.158-.8156.099-1.227.437-.1731.916-.2119 1.375-.1115 0 1.2613.742 2.8658 1.707 2.8915.64 0 1.246-.7122 1.938-.9953.356-.1526.728-.2648 1.109-.3346.85.6083 1.891.883 2.928.7722 1.417-.1716 2.117-1.2613.99-2.1107-.205-.1545-.725-.2575-.717-.4462.353-.2662.724-.507 1.11-.7207 1.142-.6571 2.234-1.3969 3.269-2.2137.162 1.5787.273 3.5607 1.05 4.6161.281.3864.666.684 1.11.858 1.229.2145 1.878-.9781 2.654-1.553.256.6178 1.349 1.716 2.211 1.4415.862-.2746.794-2.3252 1.767-2.2223.231 0 .572.4891.717.858.145.369.086 1.3557.666 1.227.333-.0772.154-.2488.333-.858.114-.4368.366-.8249.717-1.1069.768-.326 1.519 1.1841 2.159 1.6045.532.2784 1.115.4427 1.713.4825.598.0399 1.198-.0455 1.762-.2508.376-.1542.768-.2664 1.169-.3346.35 0 .854.429 1.161.5491 2.392.7274 4.967.5504 7.238-.4976.291-.1288.564-.4205.854-.6092.29-.1888.725-.266.777-.7208-.316-.4462-.973-.4891-1.682-.5834zm-42.244-1.0039c.279.0416.544.1488.774.3128s.418.3802.549.631c-.82.0686-1.221-.266-1.323-.9438zm-18.028 4.5646c0-.1372.2475 0 .2817 0-.0427.1888-.1964.0601-.2817 0zm14.818-1.716c-.589.4805-1.8861 1.3643-2.8763.6092-.6743-.5234-1.2633-1.7761-.2134-2.1708 1.05-.3947 2.9367.4462 3.0897 1.0554.069.1373-.025.3603 0 .4976zm20.41-12.2354c2.407.9095.435 5.0452-.777 5.8946-.346-2.0013-.075-4.0612.777-5.9031zm16.525 10.8368c-.324-1.9048 2.698-2.3938 3.415-1.2269-.282.5405-.931.7636-1.434 1.0553-.514.342-1.075.6051-1.665.7808-.051-.3003-.273-.3861-.316-.6092z"/><path d="m86.7031 62.1744c.0854.06.239.1887.2817 0-.0341-.0344-.2646-.1373-.2817 0z"/></g></svg>