<svg fill="none" height="255" viewBox="0 0 521 255" width="521" xmlns="http://www.w3.org/2000/svg"><g fill="#262626"><path d="m144.27 211.719h2.498c0 27.168 15.925 39.971 35.286 39.971 15.614 0 26.543-9.993 26.543-24.357 0-16.863-8.743-21.859-27.167-24.67-25.294-4.059-37.16-8.119-37.16-35.286 0-18.424 12.178-31.852 30.29-31.852 16.55 0 22.795 9.993 28.416 9.993 3.748 0 4.06-4.06 4.684-6.246h2.498v34.038h-2.498c-1.561-18.424-11.554-34.974-33.1-34.974-13.74 0-23.421 9.056-23.421 24.044 0 14.677 5.621 17.8 32.164 22.484 23.421 4.059 33.101 11.866 33.101 32.788 0 21.235-11.554 36.848-34.974 36.848-16.238 0-24.67-8.431-30.603-8.431-4.059-.312-4.059 3.747-4.059 6.557h-2.498z"/><path d="m232.329 162.693h-12.179v-2.186c14.677.312 19.986-5.934 22.484-19.673h1.561v19.673h19.361v2.186h-19.361v47.465c0 5.62 2.498 7.494 6.87 7.494 7.182 0 9.993-6.558 10.93-8.744l2.185.313c-.936 3.435-4.996 10.617-15.613 10.617-9.993 0-16.238-3.123-16.238-12.491z"/><path d="m279.168 162.693h-11.241v-2.186h11.241c4.372 0 9.056-.312 11.867-3.123v50.276c0 5.933 3.435 9.992 8.743 9.992 9.993 0 18.736-11.241 18.736-21.546v-33.413h-11.241v-2.186h11.241c4.372 0 9.056-.312 11.867-3.123v58.707h11.241v2.186h-23.108v-12.803h-.312c-1.249 3.122-7.182 14.364-19.673 14.364-14.052 0-19.048-7.494-19.048-15.613v-41.532z"/><path d="m393.771 207.972c-2.498 4.684-9.055 11.866-18.736 11.866-17.487 0-29.041-14.676-29.041-31.227 0-13.74 11.242-31.227 28.104-31.227 9.993 0 16.863 7.807 19.361 14.365h.312v-51.213h-11.241v-2.185h11.241c4.372 0 9.056-.313 11.867-3.435v101.175h9.68v2.186h-21.547zm0-26.543c0-10.305-8.119-21.859-19.673-21.859-12.49 0-14.364 9.681-14.364 29.041 0 20.922 1.561 29.041 15.613 29.041 9.681 0 18.737-8.119 18.737-19.673v-16.55z"/><path d="m430.308 162.693h-11.242v-2.186h11.242c4.372 0 9.056-.313 11.866-3.123v58.707h11.242v2.186h-34.35v-2.186h11.242zm5.933-37.785c4.06 0 7.182 3.123 7.182 7.182 0 4.06-3.122 7.182-7.182 7.182-4.059 0-7.182-3.122-7.182-7.182 0-4.059 3.123-7.182 7.182-7.182z"/><path d="m490.889 157.384c18.112 0 29.978 14.989 29.978 31.227s-11.554 31.227-29.978 31.227c-18.112 0-29.978-14.989-29.978-31.227.312-16.238 11.866-31.227 29.978-31.227zm16.55 25.606c0-12.178-.624-23.42-16.238-23.42-15.925 0-16.238 11.242-16.238 23.42v10.93c0 12.178.625 23.42 16.238 23.42 15.926 0 16.238-11.242 16.238-23.42z"/><path d="m15.6135 2.81043h-15.6135v-2.81043h49.9632v2.81043h-16.5503v55.89627h64.0153v-55.89627h-16.5503v-2.81043h49.9631v2.81043h-15.301v118.35057h15.301v2.81h-49.9631v-2.81h16.5503v-59.6438h-64.0153v59.6438h16.5503v2.81h-49.9632v-2.81h15.6135z"/><path d="m162.068 62.454c18.111 0 29.978 14.9889 29.978 31.227 0 16.238-11.554 31.227-29.978 31.227-18.112 0-29.978-14.989-29.978-31.227.312-16.2381 11.866-31.227 29.978-31.227zm16.55 25.6061c0-12.1785-.624-23.4202-16.238-23.4202-15.926 0-16.238 11.2417-16.238 23.4202v10.9295c0 12.1784.625 23.4204 16.238 23.4204 15.926 0 16.238-11.242 16.238-23.4204z"/><path d="m208.285 67.7626h-11.242v-2.1859h11.242c4.371 0 9.056-.3123 11.866-3.1227v50.275c0 5.934 3.435 9.993 8.744 9.993 9.992 0 18.736-11.242 18.736-21.547v-33.4124h-11.242v-2.1859h11.242c4.371 0 9.056-.3123 11.866-3.1227v58.707h11.242v2.186h-23.108v-12.803h-.313c-1.249 3.122-7.182 14.364-19.673 14.364-14.052 0-19.048-7.495-19.048-15.614v-41.5314z"/><path d="m279.794 102.737h1.874c1.249 7.182 4.684 19.985 19.673 19.985 7.806 0 13.739-4.996 13.739-13.115 0-11.242-8.431-11.242-15.925-12.1788-9.056-.9368-18.112-2.1859-18.112-16.8626 0-9.9926 6.558-18.1116 17.487-18.1116 7.495 0 12.803 4.9963 14.365 4.9963.936 0 .936-.9368.936-2.8104v-1.2491h1.874l.625 16.8626h-1.874c-.937-8.1191-5.309-15.3013-16.238-15.3013-7.182 0-13.115 4.0595-13.115 11.2418 0 7.1822 5.62 9.9926 14.676 10.3049l4.684.3122c11.554.6246 15.926 6.87 15.926 16.55 0 13.116-8.744 21.547-19.673 21.547-11.242 0-14.364-5.933-17.175-5.933-1.873 0-1.561 2.186-1.561 5.308h-2.186z"/><path d="m343.81 101.488c0 9.992 1.249 21.234 14.365 21.234 11.866 0 20.609-7.807 22.483-19.361h2.186c-2.186 13.116-11.866 21.547-24.669 21.547-16.551 0-28.105-12.803-28.105-31.227 0-13.7399 10.93-31.227 26.231-31.227 16.55 0 25.294 18.7362 25.294 24.357 0 .9368-.312 1.2491-1.249 1.2491h-36.848v13.4279zm24.357-19.361c0-9.0558-2.498-17.1749-11.554-17.1749-9.992 0-12.803 8.4313-12.803 17.1749v4.0595h23.42c.625 0 .937-.3123.937-.9368z"/></g></svg>