<svg fill="none" height="159" viewBox="0 0 155 159" width="155" xmlns="http://www.w3.org/2000/svg"><g fill="#fff"><path d="m38.9996 125.955h14.6359l-7.0018 14.187h7.4182v3.627h-15.0831l7.4953-14.11h-5.9839z"/><path d="m75.2479 125.878 5.4287.031-2.0512 17.859h-19.5556l-2.4214-17.782 5.4287-.031 1.8507 14.217h2.3751v-7.086h4.9506v7.117h2.6064z"/><path d="m83.4766 126.032h14.5125v11.296l-2.3288.769 3.7322 5.733h-5.3207l-2.7915-4.304-2.5601.769v3.535h-5.2436zm5.1202 3.627v6.824l4.3646-1.537v-5.348z"/><path d="m101.793 125.94h15.422v17.829h-15.422zm10.287 3.704h-5.105v10.482h5.213z"/><path d="m9.44141 151.484h.55521v6.824h2.62178v.554h-3.17699z"/><path d="m16.9696 151.361c1.28 0 2.0049 1.168 2.0049 3.827s-.7249 3.812-2.0049 3.812c-1.2801 0-2.0204-1.168-2.0204-3.812 0-2.643.694-3.827 2.0204-3.827zm0 7.086c.8945 0 1.4497-.877 1.4497-3.259s-.5552-3.274-1.4497-3.274-1.5423.876-1.5423 3.32.6015 3.213 1.5423 3.213z"/><path d="m25.4802 156.372c-.0771 1.691-.7403 2.628-1.8661 2.628s-2.0203-1.168-2.0203-3.765c0-2.598.7248-3.828 2.0203-3.828s1.8044 1.061 1.8044 2.275h-.5706c0-.999-.4318-1.721-1.2338-1.721s-1.4497.876-1.4497 3.274c0 2.397.5398 3.258 1.4497 3.258s1.2338-.799 1.3109-2.075z"/><path d="m29.3005 151.484h.7095l1.8507 7.393h-.6015l-.4164-2.106h-2.2363l-.5089 2.152h-.6015zm1.3264 4.611-.9717-4.15-.9716 4.15z"/><path d="m35.3615 152.037h-1.6193v-.553h3.8093v.553h-1.6193v6.84h-.5707z"/><path d="m39.9023 151.484h.5707v7.393h-.5707z"/><path d="m45.2194 151.361c1.2954 0 2.0203 1.168 2.0203 3.827s-.7249 3.812-2.0203 3.812c-1.2955 0-2.0358-1.168-2.0358-3.766 0-2.597.7557-3.873 2.0358-3.873zm0 7.086c.9099 0 1.4497-.877 1.4497-3.259s-.5398-3.274-1.4497-3.274c-.91 0-1.4343.876-1.4343 3.274s.5398 3.259 1.4343 3.259z"/><path d="m49.9375 151.484h.7711l2.4059 6.44v-6.44h.5707v7.393h-.7557l-2.4214-6.44v6.44h-.5706z"/><path d="m63.1056 153.375c0-.907-.3701-1.537-1.1412-1.537-.1676.001-.3331.037-.4859.106s-.2894.169-.4013.293c-.1118.125-.1962.271-.248.43-.0517.159-.0695.327-.0523.493 0 2.213 3.0844.999 3.0844 3.596 0 1.43-.7557 2.167-1.8969 2.167-1.1413 0-1.8199-.614-1.8199-2.151v-.215h.5707v.276c0 .953.4318 1.537 1.2646 1.537s1.3572-.476 1.3572-1.537c0-2.198-3.0845-.937-3.0845-3.627-.0332-.245-.0132-.494.0586-.73s.1938-.454.3576-.639c.1639-.185.3657-.333.5919-.434.2263-.1.4715-.151.7192-.149 1.1721 0 1.7119.707 1.7119 2.013z"/><path d="m67.5371 152.037h-1.6348v-.553h3.8248v.553h-1.6193v6.84h-.5707z"/><path d="m71.9453 151.484h.5398v5.287c0 1.107.401 1.645 1.2338 1.645s1.2338-.538 1.2338-1.645v-5.287h.6169v5.287c0 1.537-.6478 2.198-1.8044 2.198-1.1567 0-1.8199-.661-1.8199-2.198z"/><path d="m78.2227 151.484h1.5422c1.8353 0 2.2825 1.276 2.2825 3.704 0 2.429-.4472 3.689-2.2825 3.689h-1.5422zm.5706 6.84h.9099c1.2338 0 1.7582-.723 1.7582-3.074 0-2.352-.5244-3.074-1.7582-3.074h-.9099z"/><path d="m84.8203 151.484h.5706v7.393h-.5706z"/><path d="m90.083 151.361c1.2955 0 2.0204 1.168 2.0204 3.827s-.7249 3.812-2.0204 3.812c-1.2954 0-2.0049-1.168-2.0049-3.812 0-2.643.7249-3.827 2.0049-3.827zm0 7.086c.91 0 1.4498-.877 1.4498-3.259s-.5398-3.274-1.4498-3.274c-.9099 0-1.4497.876-1.4497 3.274s.5552 3.259 1.4497 3.259z"/><path d="m100.457 151.484h.571v3.873l2.406-3.873h.601l-1.928 3.074 2.144 4.304h-.602l-1.866-3.735-.74 1.168v2.582h-.571z"/><path d="m106.508 151.484h.555v7.393h-.555z"/><path d="m112.582 153.375c0-.907-.37-1.537-1.126-1.537-.169-.001-.336.033-.491.101-.154.068-.293.167-.406.292-.114.125-.2.272-.252.432-.053.16-.071.329-.054.497 0 2.213 3.085.999 3.085 3.596 0 1.429-.756 2.167-1.897 2.167-1.142 0-1.851-.738-1.851-2.198v-.215h.57v.277c0 .953.432 1.537 1.25 1.537.817 0 1.372-.477 1.372-1.537 0-2.198-3.084-.938-3.084-3.627-.031-.246-.009-.495.065-.731.074-.237.197-.454.362-.639s.368-.333.595-.433.472-.151.721-.149c1.172 0 1.711.707 1.711 2.013z"/><path d="m117.214 151.484h.709l1.867 7.393h-.602l-.432-2.106h-2.267l-.524 2.152h-.602zm1.342 4.611-.972-4.15-.987 4.15z"/><path d="m122.055 151.484h1.881c1.049 0 1.635.707 1.635 1.86 0 .876-.293 1.675-1.141 1.875.786 0 1.048.615 1.079 1.752v.799c-.023.382.068.762.262 1.092h-.663c-.118-.331-.176-.679-.169-1.03v-.63c0-1.307-.232-1.722-1.25-1.722h-1.064v3.382h-.57zm.57 3.458h.972c.193.021.389-.003.572-.069s.348-.173.483-.312c.136-.139.237-.307.298-.492.06-.184.077-.379.05-.571 0-.907-.324-1.537-1.341-1.537h-1.034z"/><path d="m129.55 151.484h.71l1.866 7.393h-.602l-.431-2.106h-2.237l-.524 2.152h-.602zm1.342 4.611-.972-4.15-.971 4.15z"/><path d="m134.172 158.308 3.084-6.148h-2.961v-.553h3.47v.553l-3.084 6.225h3.084v.554h-3.593z"/><path d="m140.176 151.484h.57v5.287c0 1.107.417 1.645 1.234 1.645.818 0 1.249-.538 1.249-1.645v-5.287h.556v5.287c0 1.537-.648 2.198-1.805 2.198-1.156 0-1.804-.661-1.804-2.198z"/><path d="m31.9553 116.503v-115.48835h-7.7112v32.55315c0 10.4668-.0925 50.5818-.0925 50.5818h-1.3418s-11.1042-58.4511-15.36075-83.13495h-7.44905v115.48835h7.71123v-32.5378c0-10.4668 0-50.9354 0-50.9354h1.54225s11.02702 58.8047 15.28362 83.4732h7.4491z"/><path d="m48.4107 101.102c-.0335 4.282 1.6257 8.404 4.6187 11.476 2.9929 3.072 7.079 4.846 11.3743 4.939 4.294-.093 8.3785-1.867 11.369-4.94 2.9905-3.072 4.6462-7.195 4.6087-11.475v-84.6871c.0375-4.2802-1.6182-8.40276-4.6087-11.47507-2.9905-3.07232-7.075-4.8470309-11.369-4.93983-4.2953.0927752-8.3814 1.86698-11.3743 4.93886-2.993 3.07187-4.6522 7.19444-4.6187 11.47604zm22.0387-92.12607h2.1745v99.56507h-16.4557v-99.56507z"/><path d="m96.8398 116.503h7.7112v-115.48835h-7.7112z"/><path d="m154.706 116.503c-1.172-1.537-1.711-3.074-1.696-6.671 0 0 0-38.7313 0-41.4979 0-2.7665-.062-5.3179-2.082-6.8549-1.891-1.1547-3.984-1.9422-6.169-2.3208 2.348-.7645 4.479-2.0765 6.215-3.8271.73-.8398 1.286-1.8156 1.636-2.8708.349-1.0553.485-2.1691.4-3.2771v-37.9632c.025-1.32118-.213-2.63411-.7-3.86325-.487-1.22915-1.212-2.35024-2.136-3.29877-.923-.94852-2.025-1.70574-3.243-2.22807-1.218-.52234-2.527-.79947-3.853-.81546h-22.023v115.48835h7.711v-53.7942h16.502v47.1232c-.164 2.356.453 4.7 1.758 6.671h7.711zm-23.735-61.725h-2.174v-45.80182h16.471v45.80182z"/></g></svg>